<?xml version="1.0" encoding="UTF-8" standalone="no"?><svg xmlns="http://www.w3.org/2000/svg" xmlns:xlink="http://www.w3.org/1999/xlink" contentScriptType="application/ecmascript" contentStyleType="text/css" height="1049px" preserveAspectRatio="none" style="width:1451px;height:1049px;" version="1.1" viewBox="0 0 1451 1049" width="1451px" zoomAndPan="magnify"><defs><filter height="300%" id="fwj6blgb4bk0c" width="300%" x="-1" y="-1"><feGaussianBlur result="blurOut" stdDeviation="2.0"/><feColorMatrix in="blurOut" result="blurOut2" type="matrix" values="0 0 0 0 0 0 0 0 0 0 0 0 0 0 0 0 0 0 .4 0"/><feOffset dx="4.0" dy="4.0" in="blurOut2" result="blurOut3"/><feBlend in="SourceGraphic" in2="blurOut3" mode="normal"/></filter></defs><g><!--entity laplacian-tutorial--><polygon fill="#FFFFFF" filter="url(#fwj6blgb4bk0c)" points="6,828.5,131,828.5,138,850.9883,155,850.9883,155,867.9883,6,867.9883,6,828.5" style="stroke: #000000; stroke-width: 1.5;"/><line style="stroke: #000000; stroke-width: 1.5;" x1="6" x2="138" y1="850.9883" y2="850.9883"/><text fill="#000000" font-family="sans-serif" font-size="14" lengthAdjust="spacingAndGlyphs" textLength="119" x="10" y="845.0352">laplacian-tutorial</text><!--entity domain-model-plugin--><rect fill="#FEFECE" filter="url(#fwj6blgb4bk0c)" height="52.9766" style="stroke: #A80036; stroke-width: 1.5;" width="175" x="270" y="221.5"/><rect fill="#FEFECE" height="5" style="stroke: #A80036; stroke-width: 1.5;" width="10" x="265" y="226.5"/><rect fill="#FEFECE" height="5" style="stroke: #A80036; stroke-width: 1.5;" width="10" x="265" y="264.4766"/><text fill="#000000" font-family="sans-serif" font-size="14" font-style="italic" lengthAdjust="spacingAndGlyphs" textLength="95" x="310" y="245.0352">«project type»</text><text fill="#000000" font-family="sans-serif" font-size="14" lengthAdjust="spacingAndGlyphs" textLength="155" x="280" y="261.5234">domain-model-plugin</text><!--entity domain-model--><rect fill="#FEFECE" filter="url(#fwj6blgb4bk0c)" height="52.9766" style="stroke: #A80036; stroke-width: 1.5;" width="137" x="289" y="612.5"/><rect fill="#FEFECE" height="5" style="stroke: #A80036; stroke-width: 1.5;" width="10" x="284" y="617.5"/><rect fill="#FEFECE" height="5" style="stroke: #A80036; stroke-width: 1.5;" width="10" x="284" y="655.4766"/><text fill="#000000" font-family="sans-serif" font-size="14" font-style="italic" lengthAdjust="spacingAndGlyphs" textLength="117" x="299" y="636.0352">«domain-model»</text><text fill="#000000" font-family="sans-serif" font-size="14" lengthAdjust="spacingAndGlyphs" textLength="103" x="306" y="652.5234">domain-model</text><!--entity generator--><rect fill="#FEFECE" filter="url(#fwj6blgb4bk0c)" height="52.9766" style="stroke: #A80036; stroke-width: 1.5;" width="115" x="976.5" y="221.5"/><rect fill="#FEFECE" height="5" style="stroke: #A80036; stroke-width: 1.5;" width="10" x="971.5" y="226.5"/><rect fill="#FEFECE" height="5" style="stroke: #A80036; stroke-width: 1.5;" width="10" x="971.5" y="264.4766"/><text fill="#000000" font-family="sans-serif" font-size="14" font-style="italic" lengthAdjust="spacingAndGlyphs" textLength="95" x="986.5" y="245.0352">«project type»</text><text fill="#000000" font-family="sans-serif" font-size="14" lengthAdjust="spacingAndGlyphs" textLength="68" x="1000" y="261.5234">generator</text><!--entity model--><rect fill="#FEFECE" filter="url(#fwj6blgb4bk0c)" height="52.9766" style="stroke: #A80036; stroke-width: 1.5;" width="115" x="650" y="696.5"/><rect fill="#FEFECE" height="5" style="stroke: #A80036; stroke-width: 1.5;" width="10" x="645" y="701.5"/><rect fill="#FEFECE" height="5" style="stroke: #A80036; stroke-width: 1.5;" width="10" x="645" y="739.4766"/><text fill="#000000" font-family="sans-serif" font-size="14" font-style="italic" lengthAdjust="spacingAndGlyphs" textLength="95" x="660" y="720.0352">«project type»</text><text fill="#000000" font-family="sans-serif" font-size="14" lengthAdjust="spacingAndGlyphs" textLength="43" x="686" y="736.5234">model</text><!--entity plugin--><rect fill="#FEFECE" filter="url(#fwj6blgb4bk0c)" height="52.9766" style="stroke: #A80036; stroke-width: 1.5;" width="115" x="650" y="221.5"/><rect fill="#FEFECE" height="5" style="stroke: #A80036; stroke-width: 1.5;" width="10" x="645" y="226.5"/><rect fill="#FEFECE" height="5" style="stroke: #A80036; stroke-width: 1.5;" width="10" x="645" y="264.4766"/><text fill="#000000" font-family="sans-serif" font-size="14" font-style="italic" lengthAdjust="spacingAndGlyphs" textLength="95" x="660" y="245.0352">«project type»</text><text fill="#000000" font-family="sans-serif" font-size="14" lengthAdjust="spacingAndGlyphs" textLength="44" x="685.5" y="261.5234">plugin</text><!--entity project-group--><rect fill="#FEFECE" filter="url(#fwj6blgb4bk0c)" height="52.9766" style="stroke: #A80036; stroke-width: 1.5;" width="118" x="648.5" y="61.5"/><rect fill="#FEFECE" height="5" style="stroke: #A80036; stroke-width: 1.5;" width="10" x="643.5" y="66.5"/><rect fill="#FEFECE" height="5" style="stroke: #A80036; stroke-width: 1.5;" width="10" x="643.5" y="104.4766"/><text fill="#000000" font-family="sans-serif" font-size="14" font-style="italic" lengthAdjust="spacingAndGlyphs" textLength="95" x="660" y="85.0352">«project type»</text><text fill="#000000" font-family="sans-serif" font-size="14" lengthAdjust="spacingAndGlyphs" textLength="98" x="658.5" y="101.5234">project-group</text><!--entity project-types--><rect fill="#FEFECE" filter="url(#fwj6blgb4bk0c)" height="52.9766" style="stroke: #A80036; stroke-width: 1.5;" width="115" x="300" y="700.5"/><rect fill="#FEFECE" height="5" style="stroke: #A80036; stroke-width: 1.5;" width="10" x="295" y="705.5"/><rect fill="#FEFECE" height="5" style="stroke: #A80036; stroke-width: 1.5;" width="10" x="295" y="743.4766"/><text fill="#000000" font-family="sans-serif" font-size="14" font-style="italic" lengthAdjust="spacingAndGlyphs" textLength="95" x="310" y="724.0352">«project type»</text><text fill="#000000" font-family="sans-serif" font-size="14" lengthAdjust="spacingAndGlyphs" textLength="92" x="311.5" y="740.5234">project-types</text><!--entity template--><rect fill="#FEFECE" filter="url(#fwj6blgb4bk0c)" height="52.9766" style="stroke: #A80036; stroke-width: 1.5;" width="115" x="650" y="309.5"/><rect fill="#FEFECE" height="5" style="stroke: #A80036; stroke-width: 1.5;" width="10" x="645" y="314.5"/><rect fill="#FEFECE" height="5" style="stroke: #A80036; stroke-width: 1.5;" width="10" x="645" y="352.4766"/><text fill="#000000" font-family="sans-serif" font-size="14" font-style="italic" lengthAdjust="spacingAndGlyphs" textLength="95" x="660" y="333.0352">«project type»</text><text fill="#000000" font-family="sans-serif" font-size="14" lengthAdjust="spacingAndGlyphs" textLength="60" x="677.5" y="349.5234">template</text><!--entity application-model--><rect fill="#FEFECE" filter="url(#fwj6blgb4bk0c)" height="52.9766" style="stroke: #A80036; stroke-width: 1.5;" width="147" x="7" y="740.5"/><rect fill="#FEFECE" height="5" style="stroke: #A80036; stroke-width: 1.5;" width="10" x="2" y="745.5"/><rect fill="#FEFECE" height="5" style="stroke: #A80036; stroke-width: 1.5;" width="10" x="2" y="783.4766"/><text fill="#000000" font-family="sans-serif" font-size="14" font-style="italic" lengthAdjust="spacingAndGlyphs" textLength="95" x="33" y="764.0352">«project type»</text><text fill="#000000" font-family="sans-serif" font-size="14" lengthAdjust="spacingAndGlyphs" textLength="127" x="17" y="780.5234">application-model</text><!--entity java-stack-service--><rect fill="#FEFECE" filter="url(#fwj6blgb4bk0c)" height="52.9766" style="stroke: #A80036; stroke-width: 1.5;" width="145" x="8" y="301.5"/><rect fill="#FEFECE" height="5" style="stroke: #A80036; stroke-width: 1.5;" width="10" x="3" y="306.5"/><rect fill="#FEFECE" height="5" style="stroke: #A80036; stroke-width: 1.5;" width="10" x="3" y="344.4766"/><text fill="#000000" font-family="sans-serif" font-size="14" font-style="italic" lengthAdjust="spacingAndGlyphs" textLength="95" x="33" y="325.0352">«project type»</text><text fill="#000000" font-family="sans-serif" font-size="14" lengthAdjust="spacingAndGlyphs" textLength="125" x="18" y="341.5234">java-stack-service</text><!--entity metamodel--><rect fill="#FEFECE" filter="url(#fwj6blgb4bk0c)" height="36.4883" style="stroke: #A80036; stroke-width: 1.5;" width="97" x="659" y="523"/><rect fill="#FEFECE" height="5" style="stroke: #A80036; stroke-width: 1.5;" width="10" x="654" y="528"/><rect fill="#FEFECE" height="5" style="stroke: #A80036; stroke-width: 1.5;" width="10" x="654" y="549.4883"/><text fill="#000000" font-family="sans-serif" font-size="14" lengthAdjust="spacingAndGlyphs" textLength="77" x="669" y="546.5352">metamodel</text><!--entity domain-model-plugin.project-template--><rect fill="#FEFECE" filter="url(#fwj6blgb4bk0c)" height="36.4883" style="stroke: #A80036; stroke-width: 1.5;" width="295" x="560" y="398"/><rect fill="#FEFECE" height="5" style="stroke: #A80036; stroke-width: 1.5;" width="10" x="555" y="403"/><rect fill="#FEFECE" height="5" style="stroke: #A80036; stroke-width: 1.5;" width="10" x="555" y="424.4883"/><text fill="#000000" font-family="sans-serif" font-size="14" lengthAdjust="spacingAndGlyphs" textLength="275" x="570" y="421.5352">domain-model-plugin.project-template</text><!--entity domain-model.project-template--><rect fill="#FEFECE" filter="url(#fwj6blgb4bk0c)" height="36.4883" style="stroke: #A80036; stroke-width: 1.5;" width="243" x="586" y="621"/><rect fill="#FEFECE" height="5" style="stroke: #A80036; stroke-width: 1.5;" width="10" x="581" y="626"/><rect fill="#FEFECE" height="5" style="stroke: #A80036; stroke-width: 1.5;" width="10" x="581" y="647.4883"/><text fill="#000000" font-family="sans-serif" font-size="14" lengthAdjust="spacingAndGlyphs" textLength="223" x="596" y="644.5352">domain-model.project-template</text><!--entity project.project-types--><rect fill="#FEFECE" filter="url(#fwj6blgb4bk0c)" height="36.4883" style="stroke: #A80036; stroke-width: 1.5;" width="164" x="1244.5" y="17"/><rect fill="#FEFECE" height="5" style="stroke: #A80036; stroke-width: 1.5;" width="10" x="1239.5" y="22"/><rect fill="#FEFECE" height="5" style="stroke: #A80036; stroke-width: 1.5;" width="10" x="1239.5" y="43.4883"/><text fill="#000000" font-family="sans-serif" font-size="14" lengthAdjust="spacingAndGlyphs" textLength="144" x="1254.5" y="40.5352">project.project-types</text><!--entity project.domain-model--><rect fill="#FEFECE" filter="url(#fwj6blgb4bk0c)" height="36.4883" style="stroke: #A80036; stroke-width: 1.5;" width="175" x="1239" y="88"/><rect fill="#FEFECE" height="5" style="stroke: #A80036; stroke-width: 1.5;" width="10" x="1234" y="93"/><rect fill="#FEFECE" height="5" style="stroke: #A80036; stroke-width: 1.5;" width="10" x="1234" y="114.4883"/><text fill="#000000" font-family="sans-serif" font-size="14" lengthAdjust="spacingAndGlyphs" textLength="155" x="1249" y="111.5352">project.domain-model</text><!--entity common-model--><rect fill="#FEFECE" filter="url(#fwj6blgb4bk0c)" height="36.4883" style="stroke: #A80036; stroke-width: 1.5;" width="131" x="1261" y="159"/><rect fill="#FEFECE" height="5" style="stroke: #A80036; stroke-width: 1.5;" width="10" x="1256" y="164"/><rect fill="#FEFECE" height="5" style="stroke: #A80036; stroke-width: 1.5;" width="10" x="1256" y="185.4883"/><text fill="#000000" font-family="sans-serif" font-size="14" lengthAdjust="spacingAndGlyphs" textLength="111" x="1271" y="182.5352">common-model</text><!--entity generator.project-template--><rect fill="#FEFECE" filter="url(#fwj6blgb4bk0c)" height="36.4883" style="stroke: #A80036; stroke-width: 1.5;" width="208" x="1222.5" y="230"/><rect fill="#FEFECE" height="5" style="stroke: #A80036; stroke-width: 1.5;" width="10" x="1217.5" y="235"/><rect fill="#FEFECE" height="5" style="stroke: #A80036; stroke-width: 1.5;" width="10" x="1217.5" y="256.4883"/><text fill="#000000" font-family="sans-serif" font-size="14" lengthAdjust="spacingAndGlyphs" textLength="188" x="1232.5" y="253.5352">generator.project-template</text><!--entity metamodel-plugin--><rect fill="#FEFECE" filter="url(#fwj6blgb4bk0c)" height="36.4883" style="stroke: #A80036; stroke-width: 1.5;" width="149" x="1252" y="301"/><rect fill="#FEFECE" height="5" style="stroke: #A80036; stroke-width: 1.5;" width="10" x="1247" y="306"/><rect fill="#FEFECE" height="5" style="stroke: #A80036; stroke-width: 1.5;" width="10" x="1247" y="327.4883"/><text fill="#000000" font-family="sans-serif" font-size="14" lengthAdjust="spacingAndGlyphs" textLength="129" x="1262" y="324.5352">metamodel-plugin</text><!--entity project.domain-model-plugin--><rect fill="#FEFECE" filter="url(#fwj6blgb4bk0c)" height="36.4883" style="stroke: #A80036; stroke-width: 1.5;" width="227" x="1213" y="372"/><rect fill="#FEFECE" height="5" style="stroke: #A80036; stroke-width: 1.5;" width="10" x="1208" y="377"/><rect fill="#FEFECE" height="5" style="stroke: #A80036; stroke-width: 1.5;" width="10" x="1208" y="398.4883"/><text fill="#000000" font-family="sans-serif" font-size="14" lengthAdjust="spacingAndGlyphs" textLength="207" x="1223" y="395.5352">project.domain-model-plugin</text><!--entity common-model-plugin--><rect fill="#FEFECE" filter="url(#fwj6blgb4bk0c)" height="36.4883" style="stroke: #A80036; stroke-width: 1.5;" width="183" x="1235" y="443"/><rect fill="#FEFECE" height="5" style="stroke: #A80036; stroke-width: 1.5;" width="10" x="1230" y="448"/><rect fill="#FEFECE" height="5" style="stroke: #A80036; stroke-width: 1.5;" width="10" x="1230" y="469.4883"/><text fill="#000000" font-family="sans-serif" font-size="14" lengthAdjust="spacingAndGlyphs" textLength="163" x="1245" y="466.5352">common-model-plugin</text><!--entity model.project-template--><rect fill="#FEFECE" filter="url(#fwj6blgb4bk0c)" height="36.4883" style="stroke: #A80036; stroke-width: 1.5;" width="183" x="942.5" y="705"/><rect fill="#FEFECE" height="5" style="stroke: #A80036; stroke-width: 1.5;" width="10" x="937.5" y="710"/><rect fill="#FEFECE" height="5" style="stroke: #A80036; stroke-width: 1.5;" width="10" x="937.5" y="731.4883"/><text fill="#000000" font-family="sans-serif" font-size="14" lengthAdjust="spacingAndGlyphs" textLength="163" x="952.5" y="728.5352">model.project-template</text><!--entity project-group.project-template--><rect fill="#FEFECE" filter="url(#fwj6blgb4bk0c)" height="36.4883" style="stroke: #A80036; stroke-width: 1.5;" width="238" x="915" y="70"/><rect fill="#FEFECE" height="5" style="stroke: #A80036; stroke-width: 1.5;" width="10" x="910" y="75"/><rect fill="#FEFECE" height="5" style="stroke: #A80036; stroke-width: 1.5;" width="10" x="910" y="96.4883"/><text fill="#000000" font-family="sans-serif" font-size="14" lengthAdjust="spacingAndGlyphs" textLength="218" x="925" y="93.5352">project-group.project-template</text><!--entity template.project-template--><rect fill="#FEFECE" filter="url(#fwj6blgb4bk0c)" height="36.4883" style="stroke: #A80036; stroke-width: 1.5;" width="200" x="934" y="318"/><rect fill="#FEFECE" height="5" style="stroke: #A80036; stroke-width: 1.5;" width="10" x="929" y="323"/><rect fill="#FEFECE" height="5" style="stroke: #A80036; stroke-width: 1.5;" width="10" x="929" y="344.4883"/><text fill="#000000" font-family="sans-serif" font-size="14" lengthAdjust="spacingAndGlyphs" textLength="180" x="944" y="341.5352">template.project-template</text><!--entity deployment.domain-model--><rect fill="#FEFECE" filter="url(#fwj6blgb4bk0c)" height="36.4883" style="stroke: #A80036; stroke-width: 1.5;" width="208" x="253.5" y="931"/><rect fill="#FEFECE" height="5" style="stroke: #A80036; stroke-width: 1.5;" width="10" x="248.5" y="936"/><rect fill="#FEFECE" height="5" style="stroke: #A80036; stroke-width: 1.5;" width="10" x="248.5" y="957.4883"/><text fill="#000000" font-family="sans-serif" font-size="14" lengthAdjust="spacingAndGlyphs" textLength="188" x="263.5" y="954.5352">deployment.domain-model</text><!--entity api-service.domain-model--><rect fill="#FEFECE" filter="url(#fwj6blgb4bk0c)" height="36.4883" style="stroke: #A80036; stroke-width: 1.5;" width="203" x="256" y="1002"/><rect fill="#FEFECE" height="5" style="stroke: #A80036; stroke-width: 1.5;" width="10" x="251" y="1007"/><rect fill="#FEFECE" height="5" style="stroke: #A80036; stroke-width: 1.5;" width="10" x="251" y="1028.4883"/><text fill="#000000" font-family="sans-serif" font-size="14" lengthAdjust="spacingAndGlyphs" textLength="183" x="266" y="1025.5352">api-service.domain-model</text><!--entity application-model.project-template--><rect fill="#FEFECE" filter="url(#fwj6blgb4bk0c)" height="36.4883" style="stroke: #A80036; stroke-width: 1.5;" width="267" x="224" y="789"/><rect fill="#FEFECE" height="5" style="stroke: #A80036; stroke-width: 1.5;" width="10" x="219" y="794"/><rect fill="#FEFECE" height="5" style="stroke: #A80036; stroke-width: 1.5;" width="10" x="219" y="815.4883"/><text fill="#000000" font-family="sans-serif" font-size="14" lengthAdjust="spacingAndGlyphs" textLength="247" x="234" y="812.5352">application-model.project-template</text><!--entity deployment.domain-model-plugin--><rect fill="#FEFECE" filter="url(#fwj6blgb4bk0c)" height="36.4883" style="stroke: #A80036; stroke-width: 1.5;" width="260" x="227.5" y="452"/><rect fill="#FEFECE" height="5" style="stroke: #A80036; stroke-width: 1.5;" width="10" x="222.5" y="457"/><rect fill="#FEFECE" height="5" style="stroke: #A80036; stroke-width: 1.5;" width="10" x="222.5" y="478.4883"/><text fill="#000000" font-family="sans-serif" font-size="14" lengthAdjust="spacingAndGlyphs" textLength="240" x="237.5" y="475.5352">deployment.domain-model-plugin</text><!--entity api-service.domain-model-plugin--><rect fill="#FEFECE" filter="url(#fwj6blgb4bk0c)" height="36.4883" style="stroke: #A80036; stroke-width: 1.5;" width="255" x="230" y="381"/><rect fill="#FEFECE" height="5" style="stroke: #A80036; stroke-width: 1.5;" width="10" x="225" y="386"/><rect fill="#FEFECE" height="5" style="stroke: #A80036; stroke-width: 1.5;" width="10" x="225" y="407.4883"/><text fill="#000000" font-family="sans-serif" font-size="14" lengthAdjust="spacingAndGlyphs" textLength="235" x="240" y="404.5352">api-service.domain-model-plugin</text><!--entity java-stack-service.project-template--><rect fill="#FEFECE" filter="url(#fwj6blgb4bk0c)" height="36.4883" style="stroke: #A80036; stroke-width: 1.5;" width="265" x="225" y="310"/><rect fill="#FEFECE" height="5" style="stroke: #A80036; stroke-width: 1.5;" width="10" x="220" y="315"/><rect fill="#FEFECE" height="5" style="stroke: #A80036; stroke-width: 1.5;" width="10" x="220" y="336.4883"/><text fill="#000000" font-family="sans-serif" font-size="14" lengthAdjust="spacingAndGlyphs" textLength="245" x="235" y="333.5352">java-stack-service.project-template</text><!--entity datasource.flyway-migration-template--><rect fill="#FEFECE" filter="url(#fwj6blgb4bk0c)" height="36.4883" style="stroke: #A80036; stroke-width: 1.5;" width="285" x="215" y="8"/><rect fill="#FEFECE" height="5" style="stroke: #A80036; stroke-width: 1.5;" width="10" x="210" y="13"/><rect fill="#FEFECE" height="5" style="stroke: #A80036; stroke-width: 1.5;" width="10" x="210" y="34.4883"/><text fill="#000000" font-family="sans-serif" font-size="14" lengthAdjust="spacingAndGlyphs" textLength="265" x="225" y="31.5352">datasource.flyway-migration-template</text><!--entity api-service.springboot2-template--><rect fill="#FEFECE" filter="url(#fwj6blgb4bk0c)" height="36.4883" style="stroke: #A80036; stroke-width: 1.5;" width="253" x="231" y="79"/><rect fill="#FEFECE" height="5" style="stroke: #A80036; stroke-width: 1.5;" width="10" x="226" y="84"/><rect fill="#FEFECE" height="5" style="stroke: #A80036; stroke-width: 1.5;" width="10" x="226" y="105.4883"/><text fill="#000000" font-family="sans-serif" font-size="14" lengthAdjust="spacingAndGlyphs" textLength="233" x="241" y="102.5352">api-service.springboot2-template</text><!--link domain-model-plugin to plugin--><path d="M445.42,248 C507.34,248 589.08,248 644.49,248 " fill="none" id="domain-model-plugin-plugin" style="stroke: #A80036; stroke-width: 1.0;"/><polygon fill="#A80036" points="649.77,248,640.77,244,644.77,248,640.77,252,649.77,248" style="stroke: #A80036; stroke-width: 1.0;"/><!--link domain-model to model--><path d="M426.01,655.3 C489.36,670.59 583.3,693.26 644.72,708.09 " fill="none" id="domain-model-model" style="stroke: #A80036; stroke-width: 1.0;"/><polygon fill="#A80036" points="649.82,709.32,642.0047,703.3266,644.9586,708.151,640.1342,711.1049,649.82,709.32" style="stroke: #A80036; stroke-width: 1.0;"/><!--link model to generator--><path d="M765.07,718.54 C796.13,713.06 832.76,701.06 855,675 C964.3,546.96 812.6,434.62 915,301 C928.97,282.77 950.61,270.65 971.56,262.66 " fill="none" id="model-generator" style="stroke: #A80036; stroke-width: 1.0;"/><polygon fill="#A80036" points="976.3,260.92,966.4725,260.2724,971.6073,262.6459,969.2339,267.7807,976.3,260.92" style="stroke: #A80036; stroke-width: 1.0;"/><!--link plugin to generator--><path d="M765.02,248 C822.57,248 911.56,248 971.01,248 " fill="none" id="plugin-generator" style="stroke: #A80036; stroke-width: 1.0;"/><polygon fill="#A80036" points="976.31,248,967.31,244,971.31,248,967.31,252,976.31,248" style="stroke: #A80036; stroke-width: 1.0;"/><!--link project-group to generator--><path d="M766.56,106.64 C793.88,116.1 826.62,128.46 855,142 C902.42,164.62 953.67,195.93 988.95,218.66 " fill="none" id="project-group-generator" style="stroke: #A80036; stroke-width: 1.0;"/><polygon fill="#A80036" points="993.17,221.39,987.7822,213.1455,988.9706,218.6761,983.44,219.8645,993.17,221.39" style="stroke: #A80036; stroke-width: 1.0;"/><!--link project-types to model--><path d="M415.19,726.35 C478.26,725.62 579.82,724.46 644.83,723.71 " fill="none" id="project-types-model" style="stroke: #A80036; stroke-width: 1.0;"/><polygon fill="#A80036" points="649.84,723.65,640.7949,719.7531,644.8403,723.7071,640.8863,727.7526,649.84,723.65" style="stroke: #A80036; stroke-width: 1.0;"/><!--link template to generator--><path d="M765.02,320.67 C822.69,305.03 911.92,280.84 971.37,264.71 " fill="none" id="template-generator" style="stroke: #A80036; stroke-width: 1.0;"/><polygon fill="#A80036" points="976.31,263.37,966.5754,261.8741,971.4855,264.6832,968.6765,269.5933,976.31,263.37" style="stroke: #A80036; stroke-width: 1.0;"/><!--link application-model to model--><path d="M125.54,793.57 C160.57,814.45 205.27,840.42 215,843 C337.45,875.41 377.7,875.96 500,843 C564.7,825.57 630.01,782.32 669.37,752.8 " fill="none" id="application-model-model" style="stroke: #A80036; stroke-width: 1.0;"/><polygon fill="#A80036" points="673.57,749.63,663.9738,751.8465,669.5752,752.6369,668.7848,758.2382,673.57,749.63" style="stroke: #A80036; stroke-width: 1.0;"/><!--link java-stack-service to generator--><path d="M100.24,301.27 C123.25,271.04 165.39,223.49 215,204 C480.24,99.82 831.41,185.68 971.49,227.91 " fill="none" id="java-stack-service-generator" style="stroke: #A80036; stroke-width: 1.0;"/><polygon fill="#A80036" points="976.38,229.4,968.9353,222.952,971.5968,227.9436,966.6051,230.6051,976.38,229.4" style="stroke: #A80036; stroke-width: 1.0;"/><!--link domain-model to domain-model--><path d="M310.31,612.45 C297.03,594.74 312.76,577.5 357.5,577.5 C398.4,577.5 415.05,591.9 407.47,607.91 " fill="none" id="domain-model-domain-model" style="stroke: #A80036; stroke-width: 1.0;"/><polygon fill="#A80036" points="404.69,612.45,412.8083,606.8739,407.3065,608.1893,405.9911,602.6875,404.69,612.45" style="stroke: #A80036; stroke-width: 1.0;"/><!--link domain-model-plugin to metamodel--><path d="M445.23,262.19 C465.12,268.85 484.85,278.63 500,293 C554.8,344.98 511.76,393.88 560,452 C585.64,482.88 624.92,505.93 656.36,520.82 " fill="none" id="domain-model-plugin-metamodel" style="stroke: #A80036; stroke-width: 1.0; stroke-dasharray: 7.0,7.0;"/><polygon fill="#A80036" points="660.94,522.96,654.4772,515.5282,656.4094,520.8448,651.0928,522.7771,660.94,522.96" style="stroke: #A80036; stroke-width: 1.0;"/><!--link domain-model-plugin to domain-model-plugin.project-template--><path d="M445.16,265.66 C464.39,272.18 483.84,281.03 500,293 C537.75,320.96 521.34,353.32 560,380 C569.25,386.39 579.52,391.64 590.21,395.97 " fill="none" id="domain-model-plugin-domain-model-plugin.project-template" style="stroke: #A80036; stroke-width: 1.0; stroke-dasharray: 7.0,7.0;"/><polygon fill="#A80036" points="595.14,397.89,588.1986,390.903,590.4792,396.0798,585.3024,398.3604,595.14,397.89" style="stroke: #A80036; stroke-width: 1.0;"/><!--link domain-model to metamodel--><path d="M426.01,619.99 C492.63,601.23 593.08,572.94 653.95,555.8 " fill="none" id="domain-model-metamodel" style="stroke: #A80036; stroke-width: 1.0; stroke-dasharray: 7.0,7.0;"/><polygon fill="#A80036" points="658.99,554.38,649.2462,552.9452,654.1738,555.7234,651.3956,560.651,658.99,554.38" style="stroke: #A80036; stroke-width: 1.0;"/><!--link domain-model to domain-model.project-template--><path d="M426.01,639 C469.96,639 528.62,639 580.94,639 " fill="none" id="domain-model-domain-model.project-template" style="stroke: #A80036; stroke-width: 1.0; stroke-dasharray: 7.0,7.0;"/><polygon fill="#A80036" points="585.99,639,576.99,635,580.99,639,576.99,643,585.99,639" style="stroke: #A80036; stroke-width: 1.0;"/><!--link generator to project.project-types--><path d="M1060.14,221.49 C1104.85,174.56 1195.14,80.79 1213,70 C1222.88,64.03 1233.87,58.99 1245.01,54.76 " fill="none" id="generator-project.project-types" style="stroke: #A80036; stroke-width: 1.0; stroke-dasharray: 7.0,7.0;"/><polygon fill="#A80036" points="1249.78,53,1239.9518,52.3621,1245.089,54.7305,1242.7206,59.8677,1249.78,53" style="stroke: #A80036; stroke-width: 1.0;"/><!--link generator to project.domain-model--><path d="M1073.12,221.39 C1108.21,197.82 1162.33,163.71 1213,141 C1225.72,135.3 1239.63,130.15 1253.21,125.67 " fill="none" id="generator-project.domain-model" style="stroke: #A80036; stroke-width: 1.0; stroke-dasharray: 7.0,7.0;"/><polygon fill="#A80036" points="1258.19,124.05,1248.395,123.0217,1253.4339,125.5925,1250.863,130.6314,1258.19,124.05" style="stroke: #A80036; stroke-width: 1.0;"/><!--link generator to common-model--><path d="M1091.7,234.14 C1138.63,222.67 1205.51,206.33 1255.73,194.05 " fill="none" id="generator-common-model" style="stroke: #A80036; stroke-width: 1.0; stroke-dasharray: 7.0,7.0;"/><polygon fill="#A80036" points="1260.84,192.8,1251.1481,191.0485,1255.9826,193.9858,1253.0454,198.8203,1260.84,192.8" style="stroke: #A80036; stroke-width: 1.0;"/><!--link generator to generator.project-template--><path d="M1091.7,248 C1127.4,248 1174.64,248 1217.31,248 " fill="none" id="generator-generator.project-template" style="stroke: #A80036; stroke-width: 1.0; stroke-dasharray: 7.0,7.0;"/><polygon fill="#A80036" points="1222.49,248,1213.49,244,1217.49,248,1213.49,252,1222.49,248" style="stroke: #A80036; stroke-width: 1.0;"/><!--link generator to metamodel-plugin--><path d="M1091.7,261.86 C1135.92,272.67 1197.85,287.8 1246.86,299.78 " fill="none" id="generator-metamodel-plugin" style="stroke: #A80036; stroke-width: 1.0; stroke-dasharray: 7.0,7.0;"/><polygon fill="#A80036" points="1251.86,301,1244.0654,294.9797,1247.0026,299.8142,1242.1681,302.7515,1251.86,301" style="stroke: #A80036; stroke-width: 1.0;"/><!--link generator to project.domain-model-plugin--><path d="M1091.79,269.27 C1111.84,277.86 1134.09,288.68 1153,301 C1183.06,320.59 1181.82,337.26 1213,355 C1223.35,360.89 1234.8,365.9 1246.32,370.14 " fill="none" id="generator-project.domain-model-plugin" style="stroke: #A80036; stroke-width: 1.0; stroke-dasharray: 7.0,7.0;"/><polygon fill="#A80036" points="1251.27,371.91,1244.1423,365.1133,1246.5619,370.2265,1241.4487,372.6462,1251.27,371.91" style="stroke: #A80036; stroke-width: 1.0;"/><!--link generator to common-model-plugin--><path d="M1091.51,264.15 C1112.79,272.44 1135.96,284.38 1153,301 C1197.12,344.02 1166.37,385.72 1213,426 C1219.79,431.87 1227.56,436.75 1235.77,440.82 " fill="none" id="generator-common-model-plugin" style="stroke: #A80036; stroke-width: 1.0; stroke-dasharray: 7.0,7.0;"/><polygon fill="#A80036" points="1240.37,442.99,1233.9264,435.5415,1235.8449,440.8631,1230.5233,442.7816,1240.37,442.99" style="stroke: #A80036; stroke-width: 1.0;"/><!--link model to model.project-template--><path d="M765.02,723 C812.44,723 881.19,723 937.18,723 " fill="none" id="model-model.project-template" style="stroke: #A80036; stroke-width: 1.0; stroke-dasharray: 7.0,7.0;"/><polygon fill="#A80036" points="942.22,723,933.22,719,937.22,723,933.22,727,942.22,723" style="stroke: #A80036; stroke-width: 1.0;"/><!--link project-group to project-group.project-template--><path d="M766.51,88 C806.26,88 860.47,88 909.63,88 " fill="none" id="project-group-project-group.project-template" style="stroke: #A80036; stroke-width: 1.0; stroke-dasharray: 7.0,7.0;"/><polygon fill="#A80036" points="914.67,88,905.67,84,909.67,88,905.67,92,914.67,88" style="stroke: #A80036; stroke-width: 1.0;"/><!--link template to template.project-template--><path d="M765.02,336 C810.06,336 874.34,336 928.65,336 " fill="none" id="template-template.project-template" style="stroke: #A80036; stroke-width: 1.0; stroke-dasharray: 7.0,7.0;"/><polygon fill="#A80036" points="933.88,336,924.88,332,928.88,336,924.88,340,933.88,336" style="stroke: #A80036; stroke-width: 1.0;"/><!--link application-model to project-types--><path d="M154.11,756.44 C197.85,750.08 252.94,742.06 294.6,736 " fill="none" id="application-model-project-types" style="stroke: #A80036; stroke-width: 1.0; stroke-dasharray: 7.0,7.0;"/><polygon fill="#A80036" points="299.61,735.27,290.1315,732.5945,294.6611,735.9831,291.2725,740.5127,299.61,735.27" style="stroke: #A80036; stroke-width: 1.0;"/><!--link application-model to deployment.domain-model--><path d="M133.12,793.72 C140.89,798.89 148.48,804.69 155,811 C190.36,845.19 175.93,874.12 215,904 C229.04,914.74 245.7,922.95 262.59,929.22 " fill="none" id="application-model-deployment.domain-model" style="stroke: #A80036; stroke-width: 1.0; stroke-dasharray: 7.0,7.0;"/><polygon fill="#A80036" points="267.35,930.94,260.2472,924.1173,262.6481,929.2393,257.5261,931.6403,267.35,930.94" style="stroke: #A80036; stroke-width: 1.0;"/><!--link application-model to api-service.domain-model--><path d="M136.38,793.76 C143.28,798.79 149.75,804.53 155,811 C206.55,874.52 154.63,929.81 215,985 C225.31,994.43 237.76,1001.42 250.94,1006.58 " fill="none" id="application-model-api-service.domain-model" style="stroke: #A80036; stroke-width: 1.0; stroke-dasharray: 7.0,7.0;"/><polygon fill="#A80036" points="255.83,1008.4,248.8075,1001.4946,251.1484,1006.6444,245.9985,1008.9852,255.83,1008.4" style="stroke: #A80036; stroke-width: 1.0;"/><!--link application-model to metamodel--><path d="M91.35,740.45 C108.85,697.52 149.77,613.98 215,577 C356.49,496.79 558.87,515.85 653.69,530.98 " fill="none" id="application-model-metamodel" style="stroke: #A80036; stroke-width: 1.0; stroke-dasharray: 7.0,7.0;"/><polygon fill="#A80036" points="658.67,531.79,650.4247,526.4034,653.7342,530.9911,649.1465,534.3007,658.67,531.79" style="stroke: #A80036; stroke-width: 1.0;"/><!--link application-model to application-model.project-template--><path d="M154.11,777.56 C176.71,780.85 202.35,784.58 227.6,788.25 " fill="none" id="application-model-application-model.project-template" style="stroke: #A80036; stroke-width: 1.0; stroke-dasharray: 7.0,7.0;"/><polygon fill="#A80036" points="232.64,788.98,224.3173,783.7138,227.6931,788.2529,223.154,791.6288,232.64,788.98" style="stroke: #A80036; stroke-width: 1.0;"/><!--link application-model to deployment.domain-model-plugin--><path d="M88.34,740.25 C102.82,688.96 141.47,576.41 215,515 C227.82,504.29 243.22,496.12 259.06,489.89 " fill="none" id="application-model-deployment.domain-model-plugin" style="stroke: #A80036; stroke-width: 1.0; stroke-dasharray: 7.0,7.0;"/><polygon fill="#A80036" points="263.99,488.02,254.1565,487.471,259.3148,489.7928,256.993,494.9512,263.99,488.02" style="stroke: #A80036; stroke-width: 1.0;"/><!--link application-model to api-service.domain-model-plugin--><path d="M84.15,740.41 C91.9,677.36 120.32,517.84 215,435 C222.08,428.8 230.09,423.65 238.6,419.36 " fill="none" id="application-model-api-service.domain-model-plugin" style="stroke: #A80036; stroke-width: 1.0; stroke-dasharray: 7.0,7.0;"/><polygon fill="#A80036" points="243.37,417.07,233.5249,417.3413,238.8586,419.2258,236.9741,424.5595,243.37,417.07" style="stroke: #A80036; stroke-width: 1.0;"/><!--link java-stack-service to project-types--><path d="M83.69,354.58 C90.53,420.12 117.29,590.82 215,683 C236.58,703.36 267.43,714.3 294.82,720.19 " fill="none" id="java-stack-service-project-types" style="stroke: #A80036; stroke-width: 1.0; stroke-dasharray: 7.0,7.0;"/><polygon fill="#A80036" points="299.89,721.23,291.8876,715.4887,294.9938,720.2165,290.266,723.3227,299.89,721.23" style="stroke: #A80036; stroke-width: 1.0;"/><!--link java-stack-service to java-stack-service.project-template--><path d="M153.04,328 C173.53,328 196.58,328 219.61,328 " fill="none" id="java-stack-service-java-stack-service.project-template" style="stroke: #A80036; stroke-width: 1.0; stroke-dasharray: 7.0,7.0;"/><polygon fill="#A80036" points="224.83,328,215.83,324,219.83,328,215.83,332,224.83,328" style="stroke: #A80036; stroke-width: 1.0;"/><!--link java-stack-service to datasource.flyway-migration-template--><path d="M86.99,301.33 C99.57,247.26 135.69,124.46 215,61 C222.25,55.2 230.33,50.34 238.86,46.27 " fill="none" id="java-stack-service-datasource.flyway-migration-template" style="stroke: #A80036; stroke-width: 1.0; stroke-dasharray: 7.0,7.0;"/><polygon fill="#A80036" points="243.64,44.1,233.7916,44.1944,239.0906,46.1744,237.1106,51.4734,243.64,44.1" style="stroke: #A80036; stroke-width: 1.0;"/><!--link java-stack-service to api-service.springboot2-template--><path d="M93.68,301.35 C113.45,261 156.3,184.62 215,142 C229.78,131.27 247.21,123.03 264.7,116.73 " fill="none" id="java-stack-service-api-service.springboot2-template" style="stroke: #A80036; stroke-width: 1.0; stroke-dasharray: 7.0,7.0;"/><polygon fill="#A80036" points="269.63,115,259.8136,114.2017,264.9114,116.6537,262.4594,121.7515,269.63,115" style="stroke: #A80036; stroke-width: 1.0;"/><!--link java-stack-service to deployment.domain-model-plugin--><path d="M107.68,354.83 C132.97,379.23 173.46,414.47 215,435 C227.33,441.09 240.79,446.17 254.36,450.4 " fill="none" id="java-stack-service-deployment.domain-model-plugin" style="stroke: #A80036; stroke-width: 1.0; stroke-dasharray: 7.0,7.0;"/><polygon fill="#A80036" points="259.36,451.92,251.9153,445.472,254.5768,450.4636,249.5851,453.1251,259.36,451.92" style="stroke: #A80036; stroke-width: 1.0;"/><!--link java-stack-service to api-service.domain-model-plugin--><path d="M153.14,347.61 C173.14,353.01 194.9,358.8 215,364 C235.19,369.22 257.04,374.7 277.39,379.74 " fill="none" id="java-stack-service-api-service.domain-model-plugin" style="stroke: #A80036; stroke-width: 1.0; stroke-dasharray: 7.0,7.0;"/><polygon fill="#A80036" points="282.25,380.95,274.4762,374.9028,277.3968,379.7474,272.5521,382.668,282.25,380.95" style="stroke: #A80036; stroke-width: 1.0;"/><!--
@startuml
left to right direction

[domain-model-plugin] <<project type>>
[domain-model] <<project type>>
[generator] <<project type>>
[model] <<project type>>
[plugin] <<project type>>
[project-group] <<project type>>
[project-types] <<project type>>
[template] <<project type>>
[application-model] <<project type>>
[java-stack-service] <<project type>>


[domain-model-plugin] - -> [plugin]
[domain-model] - -> [model]
[model] - -> [generator]
[plugin] - -> [generator]
[project-group] - -> [generator]
[project-types] - -> [model]
[template] - -> [generator]
[application-model] - -> [model]
[java-stack-service] - -> [generator]


package "laplacian-tutorial" {
  [domain-model] <<domain-model>>
  [domain-model] - -> [domain-model]
}



  [domain-model-plugin] ..> [metamodel]
  [domain-model-plugin] ..> [domain-model-plugin.project-template]

  [domain-model] ..> [metamodel]
  [domain-model] ..> [domain-model.project-template]

  [generator] ..> [project.project-types]
  [generator] ..> [project.domain-model]
  [generator] ..> [common-model]
  [generator] ..> [generator.project-template]
  [generator] ..> [metamodel-plugin]
  [generator] ..> [project.domain-model-plugin]
  [generator] ..> [common-model-plugin]

  [model] ..> [model.project-template]


  [project-group] ..> [project-group.project-template]


  [template] ..> [template.project-template]

  [application-model] ..> [project-types]
  [application-model] ..> [deployment.domain-model]
  [application-model] ..> [api-service.domain-model]
  [application-model] ..> [metamodel]
  [application-model] ..> [application-model.project-template]
  [application-model] ..> [deployment.domain-model-plugin]
  [application-model] ..> [api-service.domain-model-plugin]

  [java-stack-service] ..> [project-types]
  [java-stack-service] ..> [java-stack-service.project-template]
  [java-stack-service] ..> [datasource.flyway-migration-template]
  [java-stack-service] ..> [api-service.springboot2-template]
  [java-stack-service] ..> [deployment.domain-model-plugin]
  [java-stack-service] ..> [api-service.domain-model-plugin]


@enduml

PlantUML version 1.2019.05(Sun Apr 21 01:45:36 JST 2019)
(GPL source distribution)
Java Runtime: OpenJDK Runtime Environment
JVM: OpenJDK 64-Bit Server VM
Java Version: 11.0.7+10-LTS
Operating System: Mac OS X
OS Version: 10.15.6
Default Encoding: UTF-8
Language: en
Country: JP
--></g></svg>