<?xml version="1.0" encoding="UTF-8" standalone="no"?><svg xmlns="http://www.w3.org/2000/svg" xmlns:xlink="http://www.w3.org/1999/xlink" contentScriptType="application/ecmascript" contentStyleType="text/css" height="561px" preserveAspectRatio="none" style="width:1132px;height:561px;" version="1.1" viewBox="0 0 1132 561" width="1132px" zoomAndPan="magnify"><defs><filter height="300%" id="f1sos1omwmy9k2" width="300%" x="-1" y="-1"><feGaussianBlur result="blurOut" stdDeviation="2.0"/><feColorMatrix in="blurOut" result="blurOut2" type="matrix" values="0 0 0 0 0 0 0 0 0 0 0 0 0 0 0 0 0 0 .4 0"/><feOffset dx="4.0" dy="4.0" in="blurOut2" result="blurOut3"/><feBlend in="SourceGraphic" in2="blurOut3" mode="normal"/></filter></defs><g><!--entity domain-model-plugin--><rect fill="#FEFECE" filter="url(#f1sos1omwmy9k2)" height="52.9766" style="stroke: #A80036; stroke-width: 1.5;" width="175" x="6" y="332.5"/><rect fill="#FEFECE" height="5" style="stroke: #A80036; stroke-width: 1.5;" width="10" x="1" y="337.5"/><rect fill="#FEFECE" height="5" style="stroke: #A80036; stroke-width: 1.5;" width="10" x="1" y="375.4766"/><text fill="#000000" font-family="sans-serif" font-size="14" font-style="italic" lengthAdjust="spacingAndGlyphs" textLength="95" x="46" y="356.0352">«project type»</text><text fill="#000000" font-family="sans-serif" font-size="14" lengthAdjust="spacingAndGlyphs" textLength="155" x="16" y="372.5234">domain-model-plugin</text><!--entity domain-model--><rect fill="#FEFECE" filter="url(#f1sos1omwmy9k2)" height="52.9766" style="stroke: #A80036; stroke-width: 1.5;" width="123" x="32" y="96.5"/><rect fill="#FEFECE" height="5" style="stroke: #A80036; stroke-width: 1.5;" width="10" x="27" y="101.5"/><rect fill="#FEFECE" height="5" style="stroke: #A80036; stroke-width: 1.5;" width="10" x="27" y="139.4766"/><text fill="#000000" font-family="sans-serif" font-size="14" font-style="italic" lengthAdjust="spacingAndGlyphs" textLength="95" x="46" y="120.0352">«project type»</text><text fill="#000000" font-family="sans-serif" font-size="14" lengthAdjust="spacingAndGlyphs" textLength="103" x="42" y="136.5234">domain-model</text><!--entity generator--><rect fill="#FEFECE" filter="url(#f1sos1omwmy9k2)" height="52.9766" style="stroke: #A80036; stroke-width: 1.5;" width="115" x="657.5" y="292.5"/><rect fill="#FEFECE" height="5" style="stroke: #A80036; stroke-width: 1.5;" width="10" x="652.5" y="297.5"/><rect fill="#FEFECE" height="5" style="stroke: #A80036; stroke-width: 1.5;" width="10" x="652.5" y="335.4766"/><text fill="#000000" font-family="sans-serif" font-size="14" font-style="italic" lengthAdjust="spacingAndGlyphs" textLength="95" x="667.5" y="316.0352">«project type»</text><text fill="#000000" font-family="sans-serif" font-size="14" lengthAdjust="spacingAndGlyphs" textLength="68" x="681" y="332.5234">generator</text><!--entity model--><rect fill="#FEFECE" filter="url(#f1sos1omwmy9k2)" height="52.9766" style="stroke: #A80036; stroke-width: 1.5;" width="115" x="331" y="12.5"/><rect fill="#FEFECE" height="5" style="stroke: #A80036; stroke-width: 1.5;" width="10" x="326" y="17.5"/><rect fill="#FEFECE" height="5" style="stroke: #A80036; stroke-width: 1.5;" width="10" x="326" y="55.4766"/><text fill="#000000" font-family="sans-serif" font-size="14" font-style="italic" lengthAdjust="spacingAndGlyphs" textLength="95" x="341" y="36.0352">«project type»</text><text fill="#000000" font-family="sans-serif" font-size="14" lengthAdjust="spacingAndGlyphs" textLength="43" x="367" y="52.5234">model</text><!--entity plugin--><rect fill="#FEFECE" filter="url(#f1sos1omwmy9k2)" height="52.9766" style="stroke: #A80036; stroke-width: 1.5;" width="115" x="331" y="332.5"/><rect fill="#FEFECE" height="5" style="stroke: #A80036; stroke-width: 1.5;" width="10" x="326" y="337.5"/><rect fill="#FEFECE" height="5" style="stroke: #A80036; stroke-width: 1.5;" width="10" x="326" y="375.4766"/><text fill="#000000" font-family="sans-serif" font-size="14" font-style="italic" lengthAdjust="spacingAndGlyphs" textLength="95" x="341" y="356.0352">«project type»</text><text fill="#000000" font-family="sans-serif" font-size="14" lengthAdjust="spacingAndGlyphs" textLength="44" x="366.5" y="372.5234">plugin</text><!--entity project-group--><rect fill="#FEFECE" filter="url(#f1sos1omwmy9k2)" height="52.9766" style="stroke: #A80036; stroke-width: 1.5;" width="118" x="329.5" y="172.5"/><rect fill="#FEFECE" height="5" style="stroke: #A80036; stroke-width: 1.5;" width="10" x="324.5" y="177.5"/><rect fill="#FEFECE" height="5" style="stroke: #A80036; stroke-width: 1.5;" width="10" x="324.5" y="215.4766"/><text fill="#000000" font-family="sans-serif" font-size="14" font-style="italic" lengthAdjust="spacingAndGlyphs" textLength="95" x="341" y="196.0352">«project type»</text><text fill="#000000" font-family="sans-serif" font-size="14" lengthAdjust="spacingAndGlyphs" textLength="98" x="339.5" y="212.5234">project-group</text><!--entity project-types--><rect fill="#FEFECE" filter="url(#f1sos1omwmy9k2)" height="52.9766" style="stroke: #A80036; stroke-width: 1.5;" width="115" x="36" y="8.5"/><rect fill="#FEFECE" height="5" style="stroke: #A80036; stroke-width: 1.5;" width="10" x="31" y="13.5"/><rect fill="#FEFECE" height="5" style="stroke: #A80036; stroke-width: 1.5;" width="10" x="31" y="51.4766"/><text fill="#000000" font-family="sans-serif" font-size="14" font-style="italic" lengthAdjust="spacingAndGlyphs" textLength="95" x="46" y="32.0352">«project type»</text><text fill="#000000" font-family="sans-serif" font-size="14" lengthAdjust="spacingAndGlyphs" textLength="92" x="47.5" y="48.5234">project-types</text><!--entity template--><rect fill="#FEFECE" filter="url(#f1sos1omwmy9k2)" height="52.9766" style="stroke: #A80036; stroke-width: 1.5;" width="115" x="331" y="492.5"/><rect fill="#FEFECE" height="5" style="stroke: #A80036; stroke-width: 1.5;" width="10" x="326" y="497.5"/><rect fill="#FEFECE" height="5" style="stroke: #A80036; stroke-width: 1.5;" width="10" x="326" y="535.4766"/><text fill="#000000" font-family="sans-serif" font-size="14" font-style="italic" lengthAdjust="spacingAndGlyphs" textLength="95" x="341" y="516.0352">«project type»</text><text fill="#000000" font-family="sans-serif" font-size="14" lengthAdjust="spacingAndGlyphs" textLength="60" x="358.5" y="532.5234">template</text><!--entity metamodel--><rect fill="#FEFECE" filter="url(#f1sos1omwmy9k2)" height="36.4883" style="stroke: #A80036; stroke-width: 1.5;" width="97" x="340" y="261"/><rect fill="#FEFECE" height="5" style="stroke: #A80036; stroke-width: 1.5;" width="10" x="335" y="266"/><rect fill="#FEFECE" height="5" style="stroke: #A80036; stroke-width: 1.5;" width="10" x="335" y="287.4883"/><text fill="#000000" font-family="sans-serif" font-size="14" lengthAdjust="spacingAndGlyphs" textLength="77" x="350" y="284.5352">metamodel</text><!--entity domain-model-plugin.project-template--><rect fill="#FEFECE" filter="url(#f1sos1omwmy9k2)" height="36.4883" style="stroke: #A80036; stroke-width: 1.5;" width="295" x="241" y="421"/><rect fill="#FEFECE" height="5" style="stroke: #A80036; stroke-width: 1.5;" width="10" x="236" y="426"/><rect fill="#FEFECE" height="5" style="stroke: #A80036; stroke-width: 1.5;" width="10" x="236" y="447.4883"/><text fill="#000000" font-family="sans-serif" font-size="14" lengthAdjust="spacingAndGlyphs" textLength="275" x="251" y="444.5352">domain-model-plugin.project-template</text><!--entity domain-model.project-template--><rect fill="#FEFECE" filter="url(#f1sos1omwmy9k2)" height="36.4883" style="stroke: #A80036; stroke-width: 1.5;" width="243" x="267" y="101"/><rect fill="#FEFECE" height="5" style="stroke: #A80036; stroke-width: 1.5;" width="10" x="262" y="106"/><rect fill="#FEFECE" height="5" style="stroke: #A80036; stroke-width: 1.5;" width="10" x="262" y="127.4883"/><text fill="#000000" font-family="sans-serif" font-size="14" lengthAdjust="spacingAndGlyphs" textLength="223" x="277" y="124.5352">domain-model.project-template</text><!--entity project.project-types--><rect fill="#FEFECE" filter="url(#f1sos1omwmy9k2)" height="36.4883" style="stroke: #A80036; stroke-width: 1.5;" width="164" x="925.5" y="88"/><rect fill="#FEFECE" height="5" style="stroke: #A80036; stroke-width: 1.5;" width="10" x="920.5" y="93"/><rect fill="#FEFECE" height="5" style="stroke: #A80036; stroke-width: 1.5;" width="10" x="920.5" y="114.4883"/><text fill="#000000" font-family="sans-serif" font-size="14" lengthAdjust="spacingAndGlyphs" textLength="144" x="935.5" y="111.5352">project.project-types</text><!--entity project.domain-model--><rect fill="#FEFECE" filter="url(#f1sos1omwmy9k2)" height="36.4883" style="stroke: #A80036; stroke-width: 1.5;" width="175" x="920" y="159"/><rect fill="#FEFECE" height="5" style="stroke: #A80036; stroke-width: 1.5;" width="10" x="915" y="164"/><rect fill="#FEFECE" height="5" style="stroke: #A80036; stroke-width: 1.5;" width="10" x="915" y="185.4883"/><text fill="#000000" font-family="sans-serif" font-size="14" lengthAdjust="spacingAndGlyphs" textLength="155" x="930" y="182.5352">project.domain-model</text><!--entity common-model--><rect fill="#FEFECE" filter="url(#f1sos1omwmy9k2)" height="36.4883" style="stroke: #A80036; stroke-width: 1.5;" width="131" x="942" y="230"/><rect fill="#FEFECE" height="5" style="stroke: #A80036; stroke-width: 1.5;" width="10" x="937" y="235"/><rect fill="#FEFECE" height="5" style="stroke: #A80036; stroke-width: 1.5;" width="10" x="937" y="256.4883"/><text fill="#000000" font-family="sans-serif" font-size="14" lengthAdjust="spacingAndGlyphs" textLength="111" x="952" y="253.5352">common-model</text><!--entity generator.project-template--><rect fill="#FEFECE" filter="url(#f1sos1omwmy9k2)" height="36.4883" style="stroke: #A80036; stroke-width: 1.5;" width="208" x="903.5" y="301"/><rect fill="#FEFECE" height="5" style="stroke: #A80036; stroke-width: 1.5;" width="10" x="898.5" y="306"/><rect fill="#FEFECE" height="5" style="stroke: #A80036; stroke-width: 1.5;" width="10" x="898.5" y="327.4883"/><text fill="#000000" font-family="sans-serif" font-size="14" lengthAdjust="spacingAndGlyphs" textLength="188" x="913.5" y="324.5352">generator.project-template</text><!--entity metamodel-plugin--><rect fill="#FEFECE" filter="url(#f1sos1omwmy9k2)" height="36.4883" style="stroke: #A80036; stroke-width: 1.5;" width="149" x="933" y="372"/><rect fill="#FEFECE" height="5" style="stroke: #A80036; stroke-width: 1.5;" width="10" x="928" y="377"/><rect fill="#FEFECE" height="5" style="stroke: #A80036; stroke-width: 1.5;" width="10" x="928" y="398.4883"/><text fill="#000000" font-family="sans-serif" font-size="14" lengthAdjust="spacingAndGlyphs" textLength="129" x="943" y="395.5352">metamodel-plugin</text><!--entity project.domain-model-plugin--><rect fill="#FEFECE" filter="url(#f1sos1omwmy9k2)" height="36.4883" style="stroke: #A80036; stroke-width: 1.5;" width="227" x="894" y="443"/><rect fill="#FEFECE" height="5" style="stroke: #A80036; stroke-width: 1.5;" width="10" x="889" y="448"/><rect fill="#FEFECE" height="5" style="stroke: #A80036; stroke-width: 1.5;" width="10" x="889" y="469.4883"/><text fill="#000000" font-family="sans-serif" font-size="14" lengthAdjust="spacingAndGlyphs" textLength="207" x="904" y="466.5352">project.domain-model-plugin</text><!--entity common-model-plugin--><rect fill="#FEFECE" filter="url(#f1sos1omwmy9k2)" height="36.4883" style="stroke: #A80036; stroke-width: 1.5;" width="183" x="916" y="514"/><rect fill="#FEFECE" height="5" style="stroke: #A80036; stroke-width: 1.5;" width="10" x="911" y="519"/><rect fill="#FEFECE" height="5" style="stroke: #A80036; stroke-width: 1.5;" width="10" x="911" y="540.4883"/><text fill="#000000" font-family="sans-serif" font-size="14" lengthAdjust="spacingAndGlyphs" textLength="163" x="926" y="537.5352">common-model-plugin</text><!--entity model.project-template--><rect fill="#FEFECE" filter="url(#f1sos1omwmy9k2)" height="36.4883" style="stroke: #A80036; stroke-width: 1.5;" width="183" x="623.5" y="21"/><rect fill="#FEFECE" height="5" style="stroke: #A80036; stroke-width: 1.5;" width="10" x="618.5" y="26"/><rect fill="#FEFECE" height="5" style="stroke: #A80036; stroke-width: 1.5;" width="10" x="618.5" y="47.4883"/><text fill="#000000" font-family="sans-serif" font-size="14" lengthAdjust="spacingAndGlyphs" textLength="163" x="633.5" y="44.5352">model.project-template</text><!--entity project-group.project-template--><rect fill="#FEFECE" filter="url(#f1sos1omwmy9k2)" height="36.4883" style="stroke: #A80036; stroke-width: 1.5;" width="238" x="596" y="181"/><rect fill="#FEFECE" height="5" style="stroke: #A80036; stroke-width: 1.5;" width="10" x="591" y="186"/><rect fill="#FEFECE" height="5" style="stroke: #A80036; stroke-width: 1.5;" width="10" x="591" y="207.4883"/><text fill="#000000" font-family="sans-serif" font-size="14" lengthAdjust="spacingAndGlyphs" textLength="218" x="606" y="204.5352">project-group.project-template</text><!--entity template.project-template--><rect fill="#FEFECE" filter="url(#f1sos1omwmy9k2)" height="36.4883" style="stroke: #A80036; stroke-width: 1.5;" width="200" x="615" y="501"/><rect fill="#FEFECE" height="5" style="stroke: #A80036; stroke-width: 1.5;" width="10" x="610" y="506"/><rect fill="#FEFECE" height="5" style="stroke: #A80036; stroke-width: 1.5;" width="10" x="610" y="527.4883"/><text fill="#000000" font-family="sans-serif" font-size="14" lengthAdjust="spacingAndGlyphs" textLength="180" x="625" y="524.5352">template.project-template</text><!--link domain-model-plugin to plugin--><path d="M181.22,359 C227.6,359 283.62,359 325.57,359 " fill="none" id="domain-model-plugin-plugin" style="stroke: #A80036; stroke-width: 1.0;"/><polygon fill="#A80036" points="330.62,359,321.62,355,325.62,359,321.62,363,330.62,359" style="stroke: #A80036; stroke-width: 1.0;"/><!--link domain-model to model--><path d="M155.21,105.6 C205.12,91.29 275.55,71.1 325.75,56.7 " fill="none" id="domain-model-model" style="stroke: #A80036; stroke-width: 1.0;"/><polygon fill="#A80036" points="330.84,55.24,321.0874,53.8664,326.0324,56.6136,323.2852,61.5586,330.84,55.24" style="stroke: #A80036; stroke-width: 1.0;"/><!--link model to generator--><path d="M446.11,44.15 C476.03,49.55 511.53,60.56 536,83 C589.22,131.81 551.59,177.06 596,234 C613.32,256.21 637.96,275.21 660.24,289.57 " fill="none" id="model-generator" style="stroke: #A80036; stroke-width: 1.0;"/><polygon fill="#A80036" points="664.66,292.38,659.2199,284.1699,660.4435,289.6928,654.9205,290.9164,664.66,292.38" style="stroke: #A80036; stroke-width: 1.0;"/><!--link plugin to generator--><path d="M446.02,352.03 C503.57,344.94 592.56,333.97 652.01,326.64 " fill="none" id="plugin-generator" style="stroke: #A80036; stroke-width: 1.0;"/><polygon fill="#A80036" points="657.31,325.99,647.8874,323.1239,652.3477,326.6032,648.8685,331.0635,657.31,325.99" style="stroke: #A80036; stroke-width: 1.0;"/><!--link project-group to generator--><path d="M447.74,214.87 C474.81,222.66 507.29,232.6 536,243 C575.29,257.24 618.43,275.58 652.39,290.68 " fill="none" id="project-group-generator" style="stroke: #A80036; stroke-width: 1.0;"/><polygon fill="#A80036" points="657.33,292.88,650.7451,285.5561,652.7651,290.84,647.4812,292.86,657.33,292.88" style="stroke: #A80036; stroke-width: 1.0;"/><!--link project-types to model--><path d="M151.34,35.78 C201.38,36.46 274.09,37.45 325.59,38.15 " fill="none" id="project-types-model" style="stroke: #A80036; stroke-width: 1.0;"/><polygon fill="#A80036" points="330.82,38.23,321.8781,34.1018,325.8205,38.1586,321.7638,42.101,330.82,38.23" style="stroke: #A80036; stroke-width: 1.0;"/><!--link template to generator--><path d="M446,508.01 C474.19,501.07 508.12,490.44 536,475 C596.7,441.39 654.76,384.25 687.26,349.24 " fill="none" id="template-generator" style="stroke: #A80036; stroke-width: 1.0;"/><polygon fill="#A80036" points="690.71,345.51,681.66,349.3955,687.3127,349.1785,687.5296,354.8312,690.71,345.51" style="stroke: #A80036; stroke-width: 1.0;"/><!--link domain-model-plugin to metamodel--><path d="M180.28,332.44 C200.16,326.51 221.27,320.38 241,315 C271.92,306.56 306.76,297.97 334.7,291.29 " fill="none" id="domain-model-plugin-metamodel" style="stroke: #A80036; stroke-width: 1.0; stroke-dasharray: 7.0,7.0;"/><polygon fill="#A80036" points="339.84,290.06,330.1592,288.2482,334.9754,291.2155,332.0081,296.0317,339.84,290.06" style="stroke: #A80036; stroke-width: 1.0;"/><!--link domain-model-plugin to domain-model-plugin.project-template--><path d="M180.28,385.56 C200.16,391.49 221.27,397.62 241,403 C261.94,408.71 284.67,414.5 305.84,419.71 " fill="none" id="domain-model-plugin-domain-model-plugin.project-template" style="stroke: #A80036; stroke-width: 1.0; stroke-dasharray: 7.0,7.0;"/><polygon fill="#A80036" points="310.9,420.95,303.1221,414.9081,306.0459,419.7508,301.2033,422.6746,310.9,420.95" style="stroke: #A80036; stroke-width: 1.0;"/><!--link domain-model to metamodel--><path d="M119.48,149.52 C146.78,176.94 193.07,219.03 241,243 C270.34,257.67 306.04,266.6 334.85,271.9 " fill="none" id="domain-model-metamodel" style="stroke: #A80036; stroke-width: 1.0; stroke-dasharray: 7.0,7.0;"/><polygon fill="#A80036" points="339.78,272.78,331.6322,267.2471,334.8593,271.8931,330.2132,275.1202,339.78,272.78" style="stroke: #A80036; stroke-width: 1.0;"/><!--link domain-model to domain-model.project-template--><path d="M155.21,122.17 C185.96,121.75 224.51,121.23 261.31,120.72 " fill="none" id="domain-model-domain-model.project-template" style="stroke: #A80036; stroke-width: 1.0; stroke-dasharray: 7.0,7.0;"/><polygon fill="#A80036" points="266.72,120.65,257.6638,116.779,261.7205,120.7214,257.7781,124.7782,266.72,120.65" style="stroke: #A80036; stroke-width: 1.0;"/><!--link generator to project.project-types--><path d="M760.85,292.43 C784.31,277.18 812.52,256.61 834,234 C867.88,198.34 854.83,170.76 894,141 C902.05,134.89 911.18,129.83 920.68,125.65 " fill="none" id="generator-project.project-types" style="stroke: #A80036; stroke-width: 1.0; stroke-dasharray: 7.0,7.0;"/><polygon fill="#A80036" points="925.37,123.66,915.5224,123.5028,920.7691,125.6175,918.6544,130.8642,925.37,123.66" style="stroke: #A80036; stroke-width: 1.0;"/><!--link generator to project.domain-model--><path d="M754.12,292.39 C789.21,268.82 843.33,234.71 894,212 C906.72,206.3 920.63,201.15 934.21,196.67 " fill="none" id="generator-project.domain-model" style="stroke: #A80036; stroke-width: 1.0; stroke-dasharray: 7.0,7.0;"/><polygon fill="#A80036" points="939.19,195.05,929.395,194.0217,934.4339,196.5925,931.863,201.6314,939.19,195.05" style="stroke: #A80036; stroke-width: 1.0;"/><!--link generator to common-model--><path d="M772.7,305.14 C819.63,293.67 886.51,277.33 936.73,265.05 " fill="none" id="generator-common-model" style="stroke: #A80036; stroke-width: 1.0; stroke-dasharray: 7.0,7.0;"/><polygon fill="#A80036" points="941.84,263.8,932.1481,262.0485,936.9826,264.9858,934.0454,269.8203,941.84,263.8" style="stroke: #A80036; stroke-width: 1.0;"/><!--link generator to generator.project-template--><path d="M772.7,319 C808.4,319 855.64,319 898.31,319 " fill="none" id="generator-generator.project-template" style="stroke: #A80036; stroke-width: 1.0; stroke-dasharray: 7.0,7.0;"/><polygon fill="#A80036" points="903.49,319,894.49,315,898.49,319,894.49,323,903.49,319" style="stroke: #A80036; stroke-width: 1.0;"/><!--link generator to metamodel-plugin--><path d="M772.7,332.86 C816.92,343.67 878.85,358.8 927.86,370.78 " fill="none" id="generator-metamodel-plugin" style="stroke: #A80036; stroke-width: 1.0; stroke-dasharray: 7.0,7.0;"/><polygon fill="#A80036" points="932.86,372,925.0654,365.9797,928.0026,370.8142,923.1681,373.7515,932.86,372" style="stroke: #A80036; stroke-width: 1.0;"/><!--link generator to project.domain-model-plugin--><path d="M754.12,345.61 C789.21,369.18 843.33,403.29 894,426 C906.72,431.7 920.63,436.85 934.21,441.33 " fill="none" id="generator-project.domain-model-plugin" style="stroke: #A80036; stroke-width: 1.0; stroke-dasharray: 7.0,7.0;"/><polygon fill="#A80036" points="939.19,442.95,931.863,436.3686,934.4339,441.4075,929.395,443.9783,939.19,442.95" style="stroke: #A80036; stroke-width: 1.0;"/><!--link generator to common-model-plugin--><path d="M735.7,345.67 C765.69,384.45 826.48,456.21 894,497 C903.88,502.97 914.87,508.01 926.01,512.24 " fill="none" id="generator-common-model-plugin" style="stroke: #A80036; stroke-width: 1.0; stroke-dasharray: 7.0,7.0;"/><polygon fill="#A80036" points="930.78,514,923.7206,507.1323,926.089,512.2695,920.9518,514.6379,930.78,514" style="stroke: #A80036; stroke-width: 1.0;"/><!--link model to model.project-template--><path d="M446.02,39 C493.44,39 562.19,39 618.18,39 " fill="none" id="model-model.project-template" style="stroke: #A80036; stroke-width: 1.0; stroke-dasharray: 7.0,7.0;"/><polygon fill="#A80036" points="623.22,39,614.22,35,618.22,39,614.22,43,623.22,39" style="stroke: #A80036; stroke-width: 1.0;"/><!--link project-group to project-group.project-template--><path d="M447.51,199 C487.26,199 541.47,199 590.63,199 " fill="none" id="project-group-project-group.project-template" style="stroke: #A80036; stroke-width: 1.0; stroke-dasharray: 7.0,7.0;"/><polygon fill="#A80036" points="595.67,199,586.67,195,590.67,199,586.67,203,595.67,199" style="stroke: #A80036; stroke-width: 1.0;"/><!--link template to template.project-template--><path d="M446.02,519 C491.06,519 555.34,519 609.65,519 " fill="none" id="template-template.project-template" style="stroke: #A80036; stroke-width: 1.0; stroke-dasharray: 7.0,7.0;"/><polygon fill="#A80036" points="614.88,519,605.88,515,609.88,519,605.88,523,614.88,519" style="stroke: #A80036; stroke-width: 1.0;"/><!--
@startuml
left to right direction

[domain-model-plugin] <<project type>>
[domain-model] <<project type>>
[generator] <<project type>>
[model] <<project type>>
[plugin] <<project type>>
[project-group] <<project type>>
[project-types] <<project type>>
[template] <<project type>>


[domain-model-plugin] - -> [plugin]
[domain-model] - -> [model]
[model] - -> [generator]
[plugin] - -> [generator]
[project-group] - -> [generator]
[project-types] - -> [model]
[template] - -> [generator]





  [domain-model-plugin] ..> [metamodel]
  [domain-model-plugin] ..> [domain-model-plugin.project-template]

  [domain-model] ..> [metamodel]
  [domain-model] ..> [domain-model.project-template]

  [generator] ..> [project.project-types]
  [generator] ..> [project.domain-model]
  [generator] ..> [common-model]
  [generator] ..> [generator.project-template]
  [generator] ..> [metamodel-plugin]
  [generator] ..> [project.domain-model-plugin]
  [generator] ..> [common-model-plugin]

  [model] ..> [model.project-template]


  [project-group] ..> [project-group.project-template]


  [template] ..> [template.project-template]


@enduml

PlantUML version 1.2019.05(Sun Apr 21 01:45:36 JST 2019)
(GPL source distribution)
Java Runtime: OpenJDK Runtime Environment
JVM: OpenJDK 64-Bit Server VM
Java Version: 11.0.7+10-LTS
Operating System: Mac OS X
OS Version: 10.15.6
Default Encoding: UTF-8
Language: en
Country: JP
--></g></svg>