<?xml version="1.0" encoding="UTF-8" standalone="no"?><svg xmlns="http://www.w3.org/2000/svg" xmlns:xlink="http://www.w3.org/1999/xlink" contentScriptType="application/ecmascript" contentStyleType="text/css" height="1049px" preserveAspectRatio="none" style="width:1463px;height:1049px;" version="1.1" viewBox="0 0 1463 1049" width="1463px" zoomAndPan="magnify"><defs><filter height="300%" id="f1961bxi0j6cj8" width="300%" x="-1" y="-1"><feGaussianBlur result="blurOut" stdDeviation="2.0"/><feColorMatrix in="blurOut" result="blurOut2" type="matrix" values="0 0 0 0 0 0 0 0 0 0 0 0 0 0 0 0 0 0 .4 0"/><feOffset dx="4.0" dy="4.0" in="blurOut2" result="blurOut3"/><feBlend in="SourceGraphic" in2="blurOut3" mode="normal"/></filter></defs><g><!--entity laplacian-tutorial--><polygon fill="#FFFFFF" filter="url(#f1961bxi0j6cj8)" points="12,828.5,137,828.5,144,850.9883,161,850.9883,161,867.9883,12,867.9883,12,828.5" style="stroke: #000000; stroke-width: 1.5;"/><line style="stroke: #000000; stroke-width: 1.5;" x1="12" x2="144" y1="850.9883" y2="850.9883"/><text fill="#000000" font-family="sans-serif" font-size="14" lengthAdjust="spacingAndGlyphs" textLength="119" x="16" y="845.0352">laplacian-tutorial</text><!--entity domain-model-plugin--><rect fill="#FEFECE" filter="url(#f1961bxi0j6cj8)" height="52.9766" style="stroke: #A80036; stroke-width: 1.5;" width="175" x="282" y="221.5"/><rect fill="#FEFECE" height="5" style="stroke: #A80036; stroke-width: 1.5;" width="10" x="277" y="226.5"/><rect fill="#FEFECE" height="5" style="stroke: #A80036; stroke-width: 1.5;" width="10" x="277" y="264.4766"/><text fill="#000000" font-family="sans-serif" font-size="14" font-style="italic" lengthAdjust="spacingAndGlyphs" textLength="95" x="322" y="245.0352">«project type»</text><text fill="#000000" font-family="sans-serif" font-size="14" lengthAdjust="spacingAndGlyphs" textLength="155" x="292" y="261.5234">domain-model-plugin</text><!--entity domain-model--><rect fill="#FEFECE" filter="url(#f1961bxi0j6cj8)" height="52.9766" style="stroke: #A80036; stroke-width: 1.5;" width="137" x="301" y="612.5"/><rect fill="#FEFECE" height="5" style="stroke: #A80036; stroke-width: 1.5;" width="10" x="296" y="617.5"/><rect fill="#FEFECE" height="5" style="stroke: #A80036; stroke-width: 1.5;" width="10" x="296" y="655.4766"/><text fill="#000000" font-family="sans-serif" font-size="14" font-style="italic" lengthAdjust="spacingAndGlyphs" textLength="117" x="311" y="636.0352">«domain-model»</text><text fill="#000000" font-family="sans-serif" font-size="14" lengthAdjust="spacingAndGlyphs" textLength="103" x="318" y="652.5234">domain-model</text><!--entity generator--><rect fill="#FEFECE" filter="url(#f1961bxi0j6cj8)" height="52.9766" style="stroke: #A80036; stroke-width: 1.5;" width="115" x="988.5" y="221.5"/><rect fill="#FEFECE" height="5" style="stroke: #A80036; stroke-width: 1.5;" width="10" x="983.5" y="226.5"/><rect fill="#FEFECE" height="5" style="stroke: #A80036; stroke-width: 1.5;" width="10" x="983.5" y="264.4766"/><text fill="#000000" font-family="sans-serif" font-size="14" font-style="italic" lengthAdjust="spacingAndGlyphs" textLength="95" x="998.5" y="245.0352">«project type»</text><text fill="#000000" font-family="sans-serif" font-size="14" lengthAdjust="spacingAndGlyphs" textLength="68" x="1012" y="261.5234">generator</text><!--entity model--><rect fill="#FEFECE" filter="url(#f1961bxi0j6cj8)" height="52.9766" style="stroke: #A80036; stroke-width: 1.5;" width="115" x="662" y="696.5"/><rect fill="#FEFECE" height="5" style="stroke: #A80036; stroke-width: 1.5;" width="10" x="657" y="701.5"/><rect fill="#FEFECE" height="5" style="stroke: #A80036; stroke-width: 1.5;" width="10" x="657" y="739.4766"/><text fill="#000000" font-family="sans-serif" font-size="14" font-style="italic" lengthAdjust="spacingAndGlyphs" textLength="95" x="672" y="720.0352">«project type»</text><text fill="#000000" font-family="sans-serif" font-size="14" lengthAdjust="spacingAndGlyphs" textLength="43" x="698" y="736.5234">model</text><!--entity plugin--><rect fill="#FEFECE" filter="url(#f1961bxi0j6cj8)" height="52.9766" style="stroke: #A80036; stroke-width: 1.5;" width="115" x="662" y="221.5"/><rect fill="#FEFECE" height="5" style="stroke: #A80036; stroke-width: 1.5;" width="10" x="657" y="226.5"/><rect fill="#FEFECE" height="5" style="stroke: #A80036; stroke-width: 1.5;" width="10" x="657" y="264.4766"/><text fill="#000000" font-family="sans-serif" font-size="14" font-style="italic" lengthAdjust="spacingAndGlyphs" textLength="95" x="672" y="245.0352">«project type»</text><text fill="#000000" font-family="sans-serif" font-size="14" lengthAdjust="spacingAndGlyphs" textLength="44" x="697.5" y="261.5234">plugin</text><!--entity project-group--><rect fill="#FEFECE" filter="url(#f1961bxi0j6cj8)" height="52.9766" style="stroke: #A80036; stroke-width: 1.5;" width="118" x="660.5" y="61.5"/><rect fill="#FEFECE" height="5" style="stroke: #A80036; stroke-width: 1.5;" width="10" x="655.5" y="66.5"/><rect fill="#FEFECE" height="5" style="stroke: #A80036; stroke-width: 1.5;" width="10" x="655.5" y="104.4766"/><text fill="#000000" font-family="sans-serif" font-size="14" font-style="italic" lengthAdjust="spacingAndGlyphs" textLength="95" x="672" y="85.0352">«project type»</text><text fill="#000000" font-family="sans-serif" font-size="14" lengthAdjust="spacingAndGlyphs" textLength="98" x="670.5" y="101.5234">project-group</text><!--entity project-types--><rect fill="#FEFECE" filter="url(#f1961bxi0j6cj8)" height="52.9766" style="stroke: #A80036; stroke-width: 1.5;" width="115" x="312" y="700.5"/><rect fill="#FEFECE" height="5" style="stroke: #A80036; stroke-width: 1.5;" width="10" x="307" y="705.5"/><rect fill="#FEFECE" height="5" style="stroke: #A80036; stroke-width: 1.5;" width="10" x="307" y="743.4766"/><text fill="#000000" font-family="sans-serif" font-size="14" font-style="italic" lengthAdjust="spacingAndGlyphs" textLength="95" x="322" y="724.0352">«project type»</text><text fill="#000000" font-family="sans-serif" font-size="14" lengthAdjust="spacingAndGlyphs" textLength="92" x="323.5" y="740.5234">project-types</text><!--entity template--><rect fill="#FEFECE" filter="url(#f1961bxi0j6cj8)" height="52.9766" style="stroke: #A80036; stroke-width: 1.5;" width="115" x="662" y="309.5"/><rect fill="#FEFECE" height="5" style="stroke: #A80036; stroke-width: 1.5;" width="10" x="657" y="314.5"/><rect fill="#FEFECE" height="5" style="stroke: #A80036; stroke-width: 1.5;" width="10" x="657" y="352.4766"/><text fill="#000000" font-family="sans-serif" font-size="14" font-style="italic" lengthAdjust="spacingAndGlyphs" textLength="95" x="672" y="333.0352">«project type»</text><text fill="#000000" font-family="sans-serif" font-size="14" lengthAdjust="spacingAndGlyphs" textLength="60" x="689.5" y="349.5234">template</text><!--entity application-model--><rect fill="#FEFECE" filter="url(#f1961bxi0j6cj8)" height="52.9766" style="stroke: #A80036; stroke-width: 1.5;" width="161" x="6" y="740.5"/><rect fill="#FEFECE" height="5" style="stroke: #A80036; stroke-width: 1.5;" width="10" x="1" y="745.5"/><rect fill="#FEFECE" height="5" style="stroke: #A80036; stroke-width: 1.5;" width="10" x="1" y="783.4766"/><text fill="#000000" font-family="sans-serif" font-size="14" font-style="italic" lengthAdjust="spacingAndGlyphs" textLength="141" x="16" y="764.0352">«application-model»</text><text fill="#000000" font-family="sans-serif" font-size="14" lengthAdjust="spacingAndGlyphs" textLength="127" x="23" y="780.5234">application-model</text><!--entity java-stack-service--><rect fill="#FEFECE" filter="url(#f1961bxi0j6cj8)" height="52.9766" style="stroke: #A80036; stroke-width: 1.5;" width="159" x="7" y="301.5"/><rect fill="#FEFECE" height="5" style="stroke: #A80036; stroke-width: 1.5;" width="10" x="2" y="306.5"/><rect fill="#FEFECE" height="5" style="stroke: #A80036; stroke-width: 1.5;" width="10" x="2" y="344.4766"/><text fill="#000000" font-family="sans-serif" font-size="14" font-style="italic" lengthAdjust="spacingAndGlyphs" textLength="139" x="17" y="325.0352">«java-stack-service»</text><text fill="#000000" font-family="sans-serif" font-size="14" lengthAdjust="spacingAndGlyphs" textLength="125" x="24" y="341.5234">java-stack-service</text><!--entity metamodel--><rect fill="#FEFECE" filter="url(#f1961bxi0j6cj8)" height="36.4883" style="stroke: #A80036; stroke-width: 1.5;" width="97" x="671" y="523"/><rect fill="#FEFECE" height="5" style="stroke: #A80036; stroke-width: 1.5;" width="10" x="666" y="528"/><rect fill="#FEFECE" height="5" style="stroke: #A80036; stroke-width: 1.5;" width="10" x="666" y="549.4883"/><text fill="#000000" font-family="sans-serif" font-size="14" lengthAdjust="spacingAndGlyphs" textLength="77" x="681" y="546.5352">metamodel</text><!--entity domain-model-plugin.project-template--><rect fill="#FEFECE" filter="url(#f1961bxi0j6cj8)" height="36.4883" style="stroke: #A80036; stroke-width: 1.5;" width="295" x="572" y="398"/><rect fill="#FEFECE" height="5" style="stroke: #A80036; stroke-width: 1.5;" width="10" x="567" y="403"/><rect fill="#FEFECE" height="5" style="stroke: #A80036; stroke-width: 1.5;" width="10" x="567" y="424.4883"/><text fill="#000000" font-family="sans-serif" font-size="14" lengthAdjust="spacingAndGlyphs" textLength="275" x="582" y="421.5352">domain-model-plugin.project-template</text><!--entity domain-model.project-template--><rect fill="#FEFECE" filter="url(#f1961bxi0j6cj8)" height="36.4883" style="stroke: #A80036; stroke-width: 1.5;" width="243" x="598" y="621"/><rect fill="#FEFECE" height="5" style="stroke: #A80036; stroke-width: 1.5;" width="10" x="593" y="626"/><rect fill="#FEFECE" height="5" style="stroke: #A80036; stroke-width: 1.5;" width="10" x="593" y="647.4883"/><text fill="#000000" font-family="sans-serif" font-size="14" lengthAdjust="spacingAndGlyphs" textLength="223" x="608" y="644.5352">domain-model.project-template</text><!--entity project.project-types--><rect fill="#FEFECE" filter="url(#f1961bxi0j6cj8)" height="36.4883" style="stroke: #A80036; stroke-width: 1.5;" width="164" x="1256.5" y="17"/><rect fill="#FEFECE" height="5" style="stroke: #A80036; stroke-width: 1.5;" width="10" x="1251.5" y="22"/><rect fill="#FEFECE" height="5" style="stroke: #A80036; stroke-width: 1.5;" width="10" x="1251.5" y="43.4883"/><text fill="#000000" font-family="sans-serif" font-size="14" lengthAdjust="spacingAndGlyphs" textLength="144" x="1266.5" y="40.5352">project.project-types</text><!--entity project.domain-model--><rect fill="#FEFECE" filter="url(#f1961bxi0j6cj8)" height="36.4883" style="stroke: #A80036; stroke-width: 1.5;" width="175" x="1251" y="88"/><rect fill="#FEFECE" height="5" style="stroke: #A80036; stroke-width: 1.5;" width="10" x="1246" y="93"/><rect fill="#FEFECE" height="5" style="stroke: #A80036; stroke-width: 1.5;" width="10" x="1246" y="114.4883"/><text fill="#000000" font-family="sans-serif" font-size="14" lengthAdjust="spacingAndGlyphs" textLength="155" x="1261" y="111.5352">project.domain-model</text><!--entity common-model--><rect fill="#FEFECE" filter="url(#f1961bxi0j6cj8)" height="36.4883" style="stroke: #A80036; stroke-width: 1.5;" width="131" x="1273" y="159"/><rect fill="#FEFECE" height="5" style="stroke: #A80036; stroke-width: 1.5;" width="10" x="1268" y="164"/><rect fill="#FEFECE" height="5" style="stroke: #A80036; stroke-width: 1.5;" width="10" x="1268" y="185.4883"/><text fill="#000000" font-family="sans-serif" font-size="14" lengthAdjust="spacingAndGlyphs" textLength="111" x="1283" y="182.5352">common-model</text><!--entity generator.project-template--><rect fill="#FEFECE" filter="url(#f1961bxi0j6cj8)" height="36.4883" style="stroke: #A80036; stroke-width: 1.5;" width="208" x="1234.5" y="230"/><rect fill="#FEFECE" height="5" style="stroke: #A80036; stroke-width: 1.5;" width="10" x="1229.5" y="235"/><rect fill="#FEFECE" height="5" style="stroke: #A80036; stroke-width: 1.5;" width="10" x="1229.5" y="256.4883"/><text fill="#000000" font-family="sans-serif" font-size="14" lengthAdjust="spacingAndGlyphs" textLength="188" x="1244.5" y="253.5352">generator.project-template</text><!--entity metamodel-plugin--><rect fill="#FEFECE" filter="url(#f1961bxi0j6cj8)" height="36.4883" style="stroke: #A80036; stroke-width: 1.5;" width="149" x="1264" y="301"/><rect fill="#FEFECE" height="5" style="stroke: #A80036; stroke-width: 1.5;" width="10" x="1259" y="306"/><rect fill="#FEFECE" height="5" style="stroke: #A80036; stroke-width: 1.5;" width="10" x="1259" y="327.4883"/><text fill="#000000" font-family="sans-serif" font-size="14" lengthAdjust="spacingAndGlyphs" textLength="129" x="1274" y="324.5352">metamodel-plugin</text><!--entity project.domain-model-plugin--><rect fill="#FEFECE" filter="url(#f1961bxi0j6cj8)" height="36.4883" style="stroke: #A80036; stroke-width: 1.5;" width="227" x="1225" y="372"/><rect fill="#FEFECE" height="5" style="stroke: #A80036; stroke-width: 1.5;" width="10" x="1220" y="377"/><rect fill="#FEFECE" height="5" style="stroke: #A80036; stroke-width: 1.5;" width="10" x="1220" y="398.4883"/><text fill="#000000" font-family="sans-serif" font-size="14" lengthAdjust="spacingAndGlyphs" textLength="207" x="1235" y="395.5352">project.domain-model-plugin</text><!--entity common-model-plugin--><rect fill="#FEFECE" filter="url(#f1961bxi0j6cj8)" height="36.4883" style="stroke: #A80036; stroke-width: 1.5;" width="183" x="1247" y="443"/><rect fill="#FEFECE" height="5" style="stroke: #A80036; stroke-width: 1.5;" width="10" x="1242" y="448"/><rect fill="#FEFECE" height="5" style="stroke: #A80036; stroke-width: 1.5;" width="10" x="1242" y="469.4883"/><text fill="#000000" font-family="sans-serif" font-size="14" lengthAdjust="spacingAndGlyphs" textLength="163" x="1257" y="466.5352">common-model-plugin</text><!--entity model.project-template--><rect fill="#FEFECE" filter="url(#f1961bxi0j6cj8)" height="36.4883" style="stroke: #A80036; stroke-width: 1.5;" width="183" x="954.5" y="705"/><rect fill="#FEFECE" height="5" style="stroke: #A80036; stroke-width: 1.5;" width="10" x="949.5" y="710"/><rect fill="#FEFECE" height="5" style="stroke: #A80036; stroke-width: 1.5;" width="10" x="949.5" y="731.4883"/><text fill="#000000" font-family="sans-serif" font-size="14" lengthAdjust="spacingAndGlyphs" textLength="163" x="964.5" y="728.5352">model.project-template</text><!--entity project-group.project-template--><rect fill="#FEFECE" filter="url(#f1961bxi0j6cj8)" height="36.4883" style="stroke: #A80036; stroke-width: 1.5;" width="238" x="927" y="70"/><rect fill="#FEFECE" height="5" style="stroke: #A80036; stroke-width: 1.5;" width="10" x="922" y="75"/><rect fill="#FEFECE" height="5" style="stroke: #A80036; stroke-width: 1.5;" width="10" x="922" y="96.4883"/><text fill="#000000" font-family="sans-serif" font-size="14" lengthAdjust="spacingAndGlyphs" textLength="218" x="937" y="93.5352">project-group.project-template</text><!--entity template.project-template--><rect fill="#FEFECE" filter="url(#f1961bxi0j6cj8)" height="36.4883" style="stroke: #A80036; stroke-width: 1.5;" width="200" x="946" y="318"/><rect fill="#FEFECE" height="5" style="stroke: #A80036; stroke-width: 1.5;" width="10" x="941" y="323"/><rect fill="#FEFECE" height="5" style="stroke: #A80036; stroke-width: 1.5;" width="10" x="941" y="344.4883"/><text fill="#000000" font-family="sans-serif" font-size="14" lengthAdjust="spacingAndGlyphs" textLength="180" x="956" y="341.5352">template.project-template</text><!--entity deployment.domain-model--><rect fill="#FEFECE" filter="url(#f1961bxi0j6cj8)" height="36.4883" style="stroke: #A80036; stroke-width: 1.5;" width="208" x="265.5" y="931"/><rect fill="#FEFECE" height="5" style="stroke: #A80036; stroke-width: 1.5;" width="10" x="260.5" y="936"/><rect fill="#FEFECE" height="5" style="stroke: #A80036; stroke-width: 1.5;" width="10" x="260.5" y="957.4883"/><text fill="#000000" font-family="sans-serif" font-size="14" lengthAdjust="spacingAndGlyphs" textLength="188" x="275.5" y="954.5352">deployment.domain-model</text><!--entity api-service.domain-model--><rect fill="#FEFECE" filter="url(#f1961bxi0j6cj8)" height="36.4883" style="stroke: #A80036; stroke-width: 1.5;" width="203" x="268" y="1002"/><rect fill="#FEFECE" height="5" style="stroke: #A80036; stroke-width: 1.5;" width="10" x="263" y="1007"/><rect fill="#FEFECE" height="5" style="stroke: #A80036; stroke-width: 1.5;" width="10" x="263" y="1028.4883"/><text fill="#000000" font-family="sans-serif" font-size="14" lengthAdjust="spacingAndGlyphs" textLength="183" x="278" y="1025.5352">api-service.domain-model</text><!--entity application-model.project-template--><rect fill="#FEFECE" filter="url(#f1961bxi0j6cj8)" height="36.4883" style="stroke: #A80036; stroke-width: 1.5;" width="267" x="236" y="789"/><rect fill="#FEFECE" height="5" style="stroke: #A80036; stroke-width: 1.5;" width="10" x="231" y="794"/><rect fill="#FEFECE" height="5" style="stroke: #A80036; stroke-width: 1.5;" width="10" x="231" y="815.4883"/><text fill="#000000" font-family="sans-serif" font-size="14" lengthAdjust="spacingAndGlyphs" textLength="247" x="246" y="812.5352">application-model.project-template</text><!--entity deployment.domain-model-plugin--><rect fill="#FEFECE" filter="url(#f1961bxi0j6cj8)" height="36.4883" style="stroke: #A80036; stroke-width: 1.5;" width="260" x="239.5" y="452"/><rect fill="#FEFECE" height="5" style="stroke: #A80036; stroke-width: 1.5;" width="10" x="234.5" y="457"/><rect fill="#FEFECE" height="5" style="stroke: #A80036; stroke-width: 1.5;" width="10" x="234.5" y="478.4883"/><text fill="#000000" font-family="sans-serif" font-size="14" lengthAdjust="spacingAndGlyphs" textLength="240" x="249.5" y="475.5352">deployment.domain-model-plugin</text><!--entity api-service.domain-model-plugin--><rect fill="#FEFECE" filter="url(#f1961bxi0j6cj8)" height="36.4883" style="stroke: #A80036; stroke-width: 1.5;" width="255" x="242" y="381"/><rect fill="#FEFECE" height="5" style="stroke: #A80036; stroke-width: 1.5;" width="10" x="237" y="386"/><rect fill="#FEFECE" height="5" style="stroke: #A80036; stroke-width: 1.5;" width="10" x="237" y="407.4883"/><text fill="#000000" font-family="sans-serif" font-size="14" lengthAdjust="spacingAndGlyphs" textLength="235" x="252" y="404.5352">api-service.domain-model-plugin</text><!--entity java-stack-service.project-template--><rect fill="#FEFECE" filter="url(#f1961bxi0j6cj8)" height="36.4883" style="stroke: #A80036; stroke-width: 1.5;" width="265" x="237" y="310"/><rect fill="#FEFECE" height="5" style="stroke: #A80036; stroke-width: 1.5;" width="10" x="232" y="315"/><rect fill="#FEFECE" height="5" style="stroke: #A80036; stroke-width: 1.5;" width="10" x="232" y="336.4883"/><text fill="#000000" font-family="sans-serif" font-size="14" lengthAdjust="spacingAndGlyphs" textLength="245" x="247" y="333.5352">java-stack-service.project-template</text><!--entity datasource.flyway-migration-template--><rect fill="#FEFECE" filter="url(#f1961bxi0j6cj8)" height="36.4883" style="stroke: #A80036; stroke-width: 1.5;" width="285" x="227" y="8"/><rect fill="#FEFECE" height="5" style="stroke: #A80036; stroke-width: 1.5;" width="10" x="222" y="13"/><rect fill="#FEFECE" height="5" style="stroke: #A80036; stroke-width: 1.5;" width="10" x="222" y="34.4883"/><text fill="#000000" font-family="sans-serif" font-size="14" lengthAdjust="spacingAndGlyphs" textLength="265" x="237" y="31.5352">datasource.flyway-migration-template</text><!--entity api-service.springboot2-template--><rect fill="#FEFECE" filter="url(#f1961bxi0j6cj8)" height="36.4883" style="stroke: #A80036; stroke-width: 1.5;" width="253" x="243" y="79"/><rect fill="#FEFECE" height="5" style="stroke: #A80036; stroke-width: 1.5;" width="10" x="238" y="84"/><rect fill="#FEFECE" height="5" style="stroke: #A80036; stroke-width: 1.5;" width="10" x="238" y="105.4883"/><text fill="#000000" font-family="sans-serif" font-size="14" lengthAdjust="spacingAndGlyphs" textLength="233" x="253" y="102.5352">api-service.springboot2-template</text><!--link domain-model-plugin to plugin--><path d="M457.42,248 C519.34,248 601.08,248 656.49,248 " fill="none" id="domain-model-plugin-plugin" style="stroke: #A80036; stroke-width: 1.0;"/><polygon fill="#A80036" points="661.77,248,652.77,244,656.77,248,652.77,252,661.77,248" style="stroke: #A80036; stroke-width: 1.0;"/><!--link domain-model to model--><path d="M438.01,655.3 C501.36,670.59 595.3,693.26 656.72,708.09 " fill="none" id="domain-model-model" style="stroke: #A80036; stroke-width: 1.0;"/><polygon fill="#A80036" points="661.82,709.32,654.0047,703.3266,656.9586,708.151,652.1342,711.1049,661.82,709.32" style="stroke: #A80036; stroke-width: 1.0;"/><!--link model to generator--><path d="M777.07,718.54 C808.13,713.06 844.76,701.06 867,675 C976.3,546.96 824.6,434.62 927,301 C940.97,282.77 962.61,270.65 983.56,262.66 " fill="none" id="model-generator" style="stroke: #A80036; stroke-width: 1.0;"/><polygon fill="#A80036" points="988.3,260.92,978.4725,260.2724,983.6073,262.6459,981.2339,267.7807,988.3,260.92" style="stroke: #A80036; stroke-width: 1.0;"/><!--link plugin to generator--><path d="M777.02,248 C834.57,248 923.56,248 983.01,248 " fill="none" id="plugin-generator" style="stroke: #A80036; stroke-width: 1.0;"/><polygon fill="#A80036" points="988.31,248,979.31,244,983.31,248,979.31,252,988.31,248" style="stroke: #A80036; stroke-width: 1.0;"/><!--link project-group to generator--><path d="M778.56,106.64 C805.88,116.1 838.62,128.46 867,142 C914.42,164.62 965.67,195.93 1000.95,218.66 " fill="none" id="project-group-generator" style="stroke: #A80036; stroke-width: 1.0;"/><polygon fill="#A80036" points="1005.17,221.39,999.7822,213.1455,1000.9706,218.6761,995.44,219.8645,1005.17,221.39" style="stroke: #A80036; stroke-width: 1.0;"/><!--link project-types to model--><path d="M427.19,726.35 C490.26,725.62 591.82,724.46 656.83,723.71 " fill="none" id="project-types-model" style="stroke: #A80036; stroke-width: 1.0;"/><polygon fill="#A80036" points="661.84,723.65,652.7949,719.7531,656.8403,723.7071,652.8863,727.7526,661.84,723.65" style="stroke: #A80036; stroke-width: 1.0;"/><!--link template to generator--><path d="M777.02,320.67 C834.69,305.03 923.92,280.84 983.37,264.71 " fill="none" id="template-generator" style="stroke: #A80036; stroke-width: 1.0;"/><polygon fill="#A80036" points="988.31,263.37,978.5754,261.8741,983.4855,264.6832,980.6765,269.5933,988.31,263.37" style="stroke: #A80036; stroke-width: 1.0;"/><!--link application-model to model--><path d="M135.83,793.69 C175.12,815.33 224.44,842.35 227,843 C349.75,874.27 389.7,875.96 512,843 C576.7,825.57 642.01,782.32 681.37,752.8 " fill="none" id="application-model-model" style="stroke: #A80036; stroke-width: 1.0;"/><polygon fill="#A80036" points="685.57,749.63,675.9738,751.8465,681.5752,752.6369,680.7848,758.2382,685.57,749.63" style="stroke: #A80036; stroke-width: 1.0;"/><!--link java-stack-service to generator--><path d="M107.36,301.24 C131.68,270.99 175.96,223.4 227,204 C493.2,102.79 843.46,186.84 983.39,228.25 " fill="none" id="java-stack-service-generator" style="stroke: #A80036; stroke-width: 1.0;"/><polygon fill="#A80036" points="988.28,229.7,980.7949,223.2989,983.4877,228.2737,978.5129,230.9665,988.28,229.7" style="stroke: #A80036; stroke-width: 1.0;"/><!--link application-model to application-model--><path d="M38.29,740.45 C24.71,722.74 40.79,705.5 86.5,705.5 C128.29,705.5 145.31,719.9 137.56,735.91 " fill="none" id="application-model-application-model" style="stroke: #A80036; stroke-width: 1.0;"/><polygon fill="#A80036" points="134.71,740.45,142.877,734.9454,137.3638,736.2124,136.0968,730.6993,134.71,740.45" style="stroke: #A80036; stroke-width: 1.0;"/><!--link java-stack-service to java-stack-service--><path d="M38.29,301.45 C24.71,283.74 40.79,266.5 86.5,266.5 C128.29,266.5 145.31,280.9 137.56,296.91 " fill="none" id="java-stack-service-java-stack-service" style="stroke: #A80036; stroke-width: 1.0;"/><polygon fill="#A80036" points="134.71,301.45,142.877,295.9454,137.3638,297.2124,136.0968,291.6993,134.71,301.45" style="stroke: #A80036; stroke-width: 1.0;"/><!--link domain-model to domain-model--><path d="M321.29,612.45 C307.71,594.74 323.79,577.5 369.5,577.5 C411.29,577.5 428.31,591.9 420.56,607.91 " fill="none" id="domain-model-domain-model" style="stroke: #A80036; stroke-width: 1.0;"/><polygon fill="#A80036" points="417.71,612.45,425.877,606.9454,420.3638,608.2124,419.0968,602.6993,417.71,612.45" style="stroke: #A80036; stroke-width: 1.0;"/><!--link domain-model-plugin to metamodel--><path d="M457.23,262.19 C477.12,268.85 496.85,278.63 512,293 C566.8,344.98 523.76,393.88 572,452 C597.64,482.88 636.92,505.93 668.36,520.82 " fill="none" id="domain-model-plugin-metamodel" style="stroke: #A80036; stroke-width: 1.0; stroke-dasharray: 7.0,7.0;"/><polygon fill="#A80036" points="672.94,522.96,666.4772,515.5282,668.4094,520.8448,663.0928,522.7771,672.94,522.96" style="stroke: #A80036; stroke-width: 1.0;"/><!--link domain-model-plugin to domain-model-plugin.project-template--><path d="M457.16,265.66 C476.39,272.18 495.84,281.03 512,293 C549.75,320.96 533.34,353.32 572,380 C581.25,386.39 591.52,391.64 602.21,395.97 " fill="none" id="domain-model-plugin-domain-model-plugin.project-template" style="stroke: #A80036; stroke-width: 1.0; stroke-dasharray: 7.0,7.0;"/><polygon fill="#A80036" points="607.14,397.89,600.1986,390.903,602.4792,396.0798,597.3024,398.3604,607.14,397.89" style="stroke: #A80036; stroke-width: 1.0;"/><!--link domain-model to metamodel--><path d="M438.01,619.99 C504.63,601.23 605.08,572.94 665.95,555.8 " fill="none" id="domain-model-metamodel" style="stroke: #A80036; stroke-width: 1.0; stroke-dasharray: 7.0,7.0;"/><polygon fill="#A80036" points="670.99,554.38,661.2462,552.9452,666.1738,555.7234,663.3956,560.651,670.99,554.38" style="stroke: #A80036; stroke-width: 1.0;"/><!--link domain-model to domain-model.project-template--><path d="M438.01,639 C481.96,639 540.62,639 592.94,639 " fill="none" id="domain-model-domain-model.project-template" style="stroke: #A80036; stroke-width: 1.0; stroke-dasharray: 7.0,7.0;"/><polygon fill="#A80036" points="597.99,639,588.99,635,592.99,639,588.99,643,597.99,639" style="stroke: #A80036; stroke-width: 1.0;"/><!--link generator to project.project-types--><path d="M1072.14,221.49 C1116.85,174.56 1207.14,80.79 1225,70 C1234.88,64.03 1245.87,58.99 1257.01,54.76 " fill="none" id="generator-project.project-types" style="stroke: #A80036; stroke-width: 1.0; stroke-dasharray: 7.0,7.0;"/><polygon fill="#A80036" points="1261.78,53,1251.9518,52.3621,1257.089,54.7305,1254.7206,59.8677,1261.78,53" style="stroke: #A80036; stroke-width: 1.0;"/><!--link generator to project.domain-model--><path d="M1085.12,221.39 C1120.21,197.82 1174.33,163.71 1225,141 C1237.72,135.3 1251.63,130.15 1265.21,125.67 " fill="none" id="generator-project.domain-model" style="stroke: #A80036; stroke-width: 1.0; stroke-dasharray: 7.0,7.0;"/><polygon fill="#A80036" points="1270.19,124.05,1260.395,123.0217,1265.4339,125.5925,1262.863,130.6314,1270.19,124.05" style="stroke: #A80036; stroke-width: 1.0;"/><!--link generator to common-model--><path d="M1103.7,234.14 C1150.63,222.67 1217.51,206.33 1267.73,194.05 " fill="none" id="generator-common-model" style="stroke: #A80036; stroke-width: 1.0; stroke-dasharray: 7.0,7.0;"/><polygon fill="#A80036" points="1272.84,192.8,1263.1481,191.0485,1267.9826,193.9858,1265.0454,198.8203,1272.84,192.8" style="stroke: #A80036; stroke-width: 1.0;"/><!--link generator to generator.project-template--><path d="M1103.7,248 C1139.4,248 1186.64,248 1229.31,248 " fill="none" id="generator-generator.project-template" style="stroke: #A80036; stroke-width: 1.0; stroke-dasharray: 7.0,7.0;"/><polygon fill="#A80036" points="1234.49,248,1225.49,244,1229.49,248,1225.49,252,1234.49,248" style="stroke: #A80036; stroke-width: 1.0;"/><!--link generator to metamodel-plugin--><path d="M1103.7,261.86 C1147.92,272.67 1209.85,287.8 1258.86,299.78 " fill="none" id="generator-metamodel-plugin" style="stroke: #A80036; stroke-width: 1.0; stroke-dasharray: 7.0,7.0;"/><polygon fill="#A80036" points="1263.86,301,1256.0654,294.9797,1259.0026,299.8142,1254.1681,302.7515,1263.86,301" style="stroke: #A80036; stroke-width: 1.0;"/><!--link generator to project.domain-model-plugin--><path d="M1103.79,269.27 C1123.84,277.86 1146.09,288.68 1165,301 C1195.06,320.59 1193.82,337.26 1225,355 C1235.35,360.89 1246.8,365.9 1258.32,370.14 " fill="none" id="generator-project.domain-model-plugin" style="stroke: #A80036; stroke-width: 1.0; stroke-dasharray: 7.0,7.0;"/><polygon fill="#A80036" points="1263.27,371.91,1256.1423,365.1133,1258.5619,370.2265,1253.4487,372.6462,1263.27,371.91" style="stroke: #A80036; stroke-width: 1.0;"/><!--link generator to common-model-plugin--><path d="M1103.51,264.15 C1124.79,272.44 1147.96,284.38 1165,301 C1209.12,344.02 1178.37,385.72 1225,426 C1231.79,431.87 1239.56,436.75 1247.77,440.82 " fill="none" id="generator-common-model-plugin" style="stroke: #A80036; stroke-width: 1.0; stroke-dasharray: 7.0,7.0;"/><polygon fill="#A80036" points="1252.37,442.99,1245.9264,435.5415,1247.8449,440.8631,1242.5233,442.7816,1252.37,442.99" style="stroke: #A80036; stroke-width: 1.0;"/><!--link model to model.project-template--><path d="M777.02,723 C824.44,723 893.19,723 949.18,723 " fill="none" id="model-model.project-template" style="stroke: #A80036; stroke-width: 1.0; stroke-dasharray: 7.0,7.0;"/><polygon fill="#A80036" points="954.22,723,945.22,719,949.22,723,945.22,727,954.22,723" style="stroke: #A80036; stroke-width: 1.0;"/><!--link project-group to project-group.project-template--><path d="M778.51,88 C818.26,88 872.47,88 921.63,88 " fill="none" id="project-group-project-group.project-template" style="stroke: #A80036; stroke-width: 1.0; stroke-dasharray: 7.0,7.0;"/><polygon fill="#A80036" points="926.67,88,917.67,84,921.67,88,917.67,92,926.67,88" style="stroke: #A80036; stroke-width: 1.0;"/><!--link template to template.project-template--><path d="M777.02,336 C822.06,336 886.34,336 940.65,336 " fill="none" id="template-template.project-template" style="stroke: #A80036; stroke-width: 1.0; stroke-dasharray: 7.0,7.0;"/><polygon fill="#A80036" points="945.88,336,936.88,332,940.88,336,936.88,340,945.88,336" style="stroke: #A80036; stroke-width: 1.0;"/><!--link application-model to project-types--><path d="M167.27,755.64 C211.46,749.35 265.58,741.65 306.56,735.82 " fill="none" id="application-model-project-types" style="stroke: #A80036; stroke-width: 1.0; stroke-dasharray: 7.0,7.0;"/><polygon fill="#A80036" points="311.74,735.08,302.2615,732.4045,306.7911,735.7931,303.4025,740.3227,311.74,735.08" style="stroke: #A80036; stroke-width: 1.0;"/><!--link application-model to deployment.domain-model--><path d="M143.79,793.52 C152.04,798.69 160.09,804.54 167,811 C202.94,844.59 187.93,874.12 227,904 C241.04,914.74 257.7,922.95 274.59,929.22 " fill="none" id="application-model-deployment.domain-model" style="stroke: #A80036; stroke-width: 1.0; stroke-dasharray: 7.0,7.0;"/><polygon fill="#A80036" points="279.35,930.94,272.2472,924.1173,274.6481,929.2393,269.5261,931.6403,279.35,930.94" style="stroke: #A80036; stroke-width: 1.0;"/><!--link application-model to api-service.domain-model--><path d="M147.65,793.77 C154.82,798.75 161.52,804.48 167,811 C219.62,873.64 166.63,929.81 227,985 C237.31,994.43 249.76,1001.42 262.94,1006.58 " fill="none" id="application-model-api-service.domain-model" style="stroke: #A80036; stroke-width: 1.0; stroke-dasharray: 7.0,7.0;"/><polygon fill="#A80036" points="267.83,1008.4,260.8075,1001.4946,263.1484,1006.6444,257.9985,1008.9852,267.83,1008.4" style="stroke: #A80036; stroke-width: 1.0;"/><!--link application-model to metamodel--><path d="M98.15,740.42 C116.94,697.45 160.4,613.84 227,577 C369.32,498.27 571.29,516.61 665.85,531.28 " fill="none" id="application-model-metamodel" style="stroke: #A80036; stroke-width: 1.0; stroke-dasharray: 7.0,7.0;"/><polygon fill="#A80036" points="670.82,532.06,662.5445,526.72,665.8798,531.289,661.3108,534.6243,670.82,532.06" style="stroke: #A80036; stroke-width: 1.0;"/><!--link application-model to application-model.project-template--><path d="M167.27,778.36 C189.01,781.45 213.15,784.89 236.94,788.27 " fill="none" id="application-model-application-model.project-template" style="stroke: #A80036; stroke-width: 1.0; stroke-dasharray: 7.0,7.0;"/><polygon fill="#A80036" points="242.02,789,233.6698,783.7775,237.0694,788.2989,232.548,791.6985,242.02,789" style="stroke: #A80036; stroke-width: 1.0;"/><!--link application-model to deployment.domain-model-plugin--><path d="M95,740.24 C110.76,688.92 152.16,576.34 227,515 C240.01,504.34 255.58,496.19 271.56,489.96 " fill="none" id="application-model-deployment.domain-model-plugin" style="stroke: #A80036; stroke-width: 1.0; stroke-dasharray: 7.0,7.0;"/><polygon fill="#A80036" points="276.53,488.09,266.697,487.531,271.8531,489.8581,269.526,495.0142,276.53,488.09" style="stroke: #A80036; stroke-width: 1.0;"/><!--link application-model to api-service.domain-model-plugin--><path d="M90.66,740.39 C99.62,677.27 131.08,517.63 227,435 C234.21,428.79 242.35,423.62 250.99,419.33 " fill="none" id="application-model-api-service.domain-model-plugin" style="stroke: #A80036; stroke-width: 1.0; stroke-dasharray: 7.0,7.0;"/><polygon fill="#A80036" points="255.84,417.04,245.9942,417.2859,251.3231,419.1841,249.4248,424.513,255.84,417.04" style="stroke: #A80036; stroke-width: 1.0;"/><!--link java-stack-service to project-types--><path d="M90.18,354.61 C98.22,420.21 128.06,591.02 227,683 C248.64,703.12 279.34,714.04 306.62,719.97 " fill="none" id="java-stack-service-project-types" style="stroke: #A80036; stroke-width: 1.0; stroke-dasharray: 7.0,7.0;"/><polygon fill="#A80036" points="311.67,721.02,303.671,715.2741,306.7744,720.0037,302.0448,723.1071,311.67,721.02" style="stroke: #A80036; stroke-width: 1.0;"/><!--link java-stack-service to java-stack-service.project-template--><path d="M166.15,328 C186.6,328 209.24,328 231.75,328 " fill="none" id="java-stack-service-java-stack-service.project-template" style="stroke: #A80036; stroke-width: 1.0; stroke-dasharray: 7.0,7.0;"/><polygon fill="#A80036" points="236.85,328,227.85,324,231.85,328,227.85,332,236.85,328" style="stroke: #A80036; stroke-width: 1.0;"/><!--link java-stack-service to datasource.flyway-migration-template--><path d="M93.61,301.31 C107.44,247.19 146.39,124.33 227,61 C234.39,55.2 242.61,50.34 251.27,46.28 " fill="none" id="java-stack-service-datasource.flyway-migration-template" style="stroke: #A80036; stroke-width: 1.0; stroke-dasharray: 7.0,7.0;"/><polygon fill="#A80036" points="256.12,44.1,246.2712,44.1315,251.5575,46.1453,249.5436,51.4315,256.12,44.1" style="stroke: #A80036; stroke-width: 1.0;"/><!--link java-stack-service to api-service.springboot2-template--><path d="M100.54,301.36 C121.62,261.02 166.94,184.66 227,142 C242.08,131.29 259.82,123.05 277.55,116.73 " fill="none" id="java-stack-service-api-service.springboot2-template" style="stroke: #A80036; stroke-width: 1.0; stroke-dasharray: 7.0,7.0;"/><polygon fill="#A80036" points="282.55,115,272.7357,114.1752,277.8269,116.6409,275.3612,121.7321,282.55,115" style="stroke: #A80036; stroke-width: 1.0;"/><!--link java-stack-service to deployment.domain-model-plugin--><path d="M114.83,354.54 C141.4,378.91 183.95,414.29 227,435 C239.69,441.11 253.56,446.21 267.48,450.46 " fill="none" id="java-stack-service-deployment.domain-model-plugin" style="stroke: #A80036; stroke-width: 1.0; stroke-dasharray: 7.0,7.0;"/><polygon fill="#A80036" points="272.61,451.99,265.1302,445.5828,267.8189,450.5598,262.8419,453.2486,272.61,451.99" style="stroke: #A80036; stroke-width: 1.0;"/><!--link java-stack-service to api-service.domain-model-plugin--><path d="M166.04,348.42 C185.92,353.54 207.24,359.01 227,364 C247.44,369.17 269.57,374.68 290.11,379.76 " fill="none" id="java-stack-service-api-service.domain-model-plugin" style="stroke: #A80036; stroke-width: 1.0; stroke-dasharray: 7.0,7.0;"/><polygon fill="#A80036" points="295.02,380.97,287.2462,374.9228,290.1668,379.7674,285.3221,382.688,295.02,380.97" style="stroke: #A80036; stroke-width: 1.0;"/><!--
@startuml
left to right direction

[domain-model-plugin] <<project type>>
[domain-model] <<project type>>
[generator] <<project type>>
[model] <<project type>>
[plugin] <<project type>>
[project-group] <<project type>>
[project-types] <<project type>>
[template] <<project type>>
[application-model] <<project type>>
[java-stack-service] <<project type>>


[domain-model-plugin] - -> [plugin]
[domain-model] - -> [model]
[model] - -> [generator]
[plugin] - -> [generator]
[project-group] - -> [generator]
[project-types] - -> [model]
[template] - -> [generator]
[application-model] - -> [model]
[java-stack-service] - -> [generator]


package "laplacian-tutorial" {
  [application-model] <<application-model>>
  [application-model] - -> [application-model]
  [java-stack-service] <<java-stack-service>>
  [java-stack-service] - -> [java-stack-service]
  [domain-model] <<domain-model>>
  [domain-model] - -> [domain-model]
}



  [domain-model-plugin] ..> [metamodel]
  [domain-model-plugin] ..> [domain-model-plugin.project-template]

  [domain-model] ..> [metamodel]
  [domain-model] ..> [domain-model.project-template]

  [generator] ..> [project.project-types]
  [generator] ..> [project.domain-model]
  [generator] ..> [common-model]
  [generator] ..> [generator.project-template]
  [generator] ..> [metamodel-plugin]
  [generator] ..> [project.domain-model-plugin]
  [generator] ..> [common-model-plugin]

  [model] ..> [model.project-template]


  [project-group] ..> [project-group.project-template]


  [template] ..> [template.project-template]

  [application-model] ..> [project-types]
  [application-model] ..> [deployment.domain-model]
  [application-model] ..> [api-service.domain-model]
  [application-model] ..> [metamodel]
  [application-model] ..> [application-model.project-template]
  [application-model] ..> [deployment.domain-model-plugin]
  [application-model] ..> [api-service.domain-model-plugin]

  [java-stack-service] ..> [project-types]
  [java-stack-service] ..> [java-stack-service.project-template]
  [java-stack-service] ..> [datasource.flyway-migration-template]
  [java-stack-service] ..> [api-service.springboot2-template]
  [java-stack-service] ..> [deployment.domain-model-plugin]
  [java-stack-service] ..> [api-service.domain-model-plugin]


@enduml

PlantUML version 1.2019.05(Sun Apr 21 01:45:36 JST 2019)
(GPL source distribution)
Java Runtime: OpenJDK Runtime Environment
JVM: OpenJDK 64-Bit Server VM
Java Version: 11.0.7+10-LTS
Operating System: Mac OS X
OS Version: 10.15.6
Default Encoding: UTF-8
Language: en
Country: JP
--></g></svg>