<?xml version="1.0" encoding="UTF-8" standalone="no"?><svg xmlns="http://www.w3.org/2000/svg" xmlns:xlink="http://www.w3.org/1999/xlink" contentScriptType="application/ecmascript" contentStyleType="text/css" height="383px" preserveAspectRatio="none" style="width:544px;height:383px;" version="1.1" viewBox="0 0 544 383" width="544px" zoomAndPan="magnify"><defs><filter height="300%" id="f1ontl4t6mkoeh" width="300%" x="-1" y="-1"><feGaussianBlur result="blurOut" stdDeviation="2.0"/><feColorMatrix in="blurOut" result="blurOut2" type="matrix" values="0 0 0 0 0 0 0 0 0 0 0 0 0 0 0 0 0 0 .4 0"/><feOffset dx="4.0" dy="4.0" in="blurOut2" result="blurOut3"/><feBlend in="SourceGraphic" in2="blurOut3" mode="normal"/></filter></defs><g><!--cluster API Server--><polygon fill="#FFFFFF" filter="url(#f1ontl4t6mkoeh)" points="129,289,139,279,367,279,367,361,357,371,129,371,129,289" style="stroke: #000000; stroke-width: 1.5;"/><line style="stroke: #000000; stroke-width: 1.5;" x1="357" x2="366" y1="289" y2="280"/><line style="stroke: #000000; stroke-width: 1.5;" x1="129" x2="357" y1="289" y2="289"/><line style="stroke: #000000; stroke-width: 1.5;" x1="357" x2="357" y1="289" y2="371"/><text fill="#000000" font-family="sans-serif" font-size="14" font-weight="bold" lengthAdjust="spacingAndGlyphs" textLength="73" x="207.5" y="305.5352">API Server</text><!--cluster Browser--><polygon fill="#FFFFFF" filter="url(#f1ontl4t6mkoeh)" points="22,164,32,154,379,154,379,236,369,246,22,246,22,164" style="stroke: #000000; stroke-width: 1.5;"/><line style="stroke: #000000; stroke-width: 1.5;" x1="369" x2="378" y1="164" y2="155"/><line style="stroke: #000000; stroke-width: 1.5;" x1="22" x2="369" y1="164" y2="164"/><line style="stroke: #000000; stroke-width: 1.5;" x1="369" x2="369" y1="164" y2="246"/><text fill="#000000" font-family="sans-serif" font-size="14" font-weight="bold" lengthAdjust="spacingAndGlyphs" textLength="58" x="167.5" y="180.5352">Browser</text><!--entity REST--><ellipse cx="207" cy="337" fill="#FEFECE" filter="url(#f1ontl4t6mkoeh)" rx="8" ry="8" style="stroke: #A80036; stroke-width: 2.0;"/><text fill="#000000" font-family="sans-serif" font-size="14" lengthAdjust="spacingAndGlyphs" textLength="34" x="190" y="367.5352">REST</text><!--entity tutorial-api--><rect fill="#FEFECE" filter="url(#f1ontl4t6mkoeh)" height="36.4883" style="stroke: #A80036; stroke-width: 1.5;" width="99" x="251.5" y="319"/><rect fill="#FEFECE" height="5" style="stroke: #A80036; stroke-width: 1.5;" width="10" x="246.5" y="324"/><rect fill="#FEFECE" height="5" style="stroke: #A80036; stroke-width: 1.5;" width="10" x="246.5" y="345.4883"/><text fill="#000000" font-family="sans-serif" font-size="14" lengthAdjust="spacingAndGlyphs" textLength="79" x="261.5" y="342.5352">tutorial-api</text><!--entity GraphQL--><ellipse cx="154" cy="337" fill="#FEFECE" filter="url(#f1ontl4t6mkoeh)" rx="8" ry="8" style="stroke: #A80036; stroke-width: 2.0;"/><text fill="#000000" font-family="sans-serif" font-size="14" lengthAdjust="spacingAndGlyphs" textLength="60" x="124" y="367.5352">GraphQL</text><!--entity Altair Graphql Client--><rect fill="#FEFECE" filter="url(#f1ontl4t6mkoeh)" height="36.4883" style="stroke: #A80036; stroke-width: 1.5;" width="160" x="38" y="194"/><rect fill="#FEFECE" height="5" style="stroke: #A80036; stroke-width: 1.5;" width="10" x="33" y="199"/><rect fill="#FEFECE" height="5" style="stroke: #A80036; stroke-width: 1.5;" width="10" x="33" y="220.4883"/><text fill="#000000" font-family="sans-serif" font-size="14" lengthAdjust="spacingAndGlyphs" textLength="140" x="48" y="217.5352">Altair Graphql Client</text><!--entity Swagger Rest UI--><rect fill="#FEFECE" filter="url(#f1ontl4t6mkoeh)" height="36.4883" style="stroke: #A80036; stroke-width: 1.5;" width="130" x="233" y="194"/><rect fill="#FEFECE" height="5" style="stroke: #A80036; stroke-width: 1.5;" width="10" x="228" y="199"/><rect fill="#FEFECE" height="5" style="stroke: #A80036; stroke-width: 1.5;" width="10" x="228" y="220.4883"/><text fill="#000000" font-family="sans-serif" font-size="14" lengthAdjust="spacingAndGlyphs" textLength="110" x="243" y="217.5352">Swagger Rest UI</text><path d="M408,33 L408,66.3105 A0,0 0 0 0 408,66.3105 L462,66.3105 L466,193.56 L470,66.3105 L524,66.3105 A0,0 0 0 0 524,66.3105 L524,43 L514,33 L408,33 A0,0 0 0 0 408,33 " fill="#FBFB77" filter="url(#f1ontl4t6mkoeh)" style="stroke: #A80036; stroke-width: 1.0;"/><path d="M514,33 L514,43 L524,43 L514,33 " fill="#FBFB77" style="stroke: #A80036; stroke-width: 1.0;"/><text fill="#000000" font-family="sans-serif" font-size="13" lengthAdjust="spacingAndGlyphs" textLength="95" x="414" y="50.5684">REST resources</text><line style="stroke: #A80036; stroke-width: 1.0;" x1="409" x2="523" y1="53.3105" y2="53.3105"/><!--entity User--><ellipse cx="209" cy="18" fill="#FEFECE" filter="url(#f1ontl4t6mkoeh)" rx="8" ry="8" style="stroke: #A80036; stroke-width: 2.0;"/><path d="M209,26 L209,53 M196,34 L222,34 M209,53 L196,68 M209,53 L222,68 " fill="none" filter="url(#f1ontl4t6mkoeh)" style="stroke: #A80036; stroke-width: 2.0;"/><text fill="#000000" font-family="sans-serif" font-size="14" lengthAdjust="spacingAndGlyphs" textLength="31" x="193.5" y="88.5352">User</text><!--entity todo-list-service--><rect fill="#FEFECE" filter="url(#f1ontl4t6mkoeh)" height="36.4883" style="stroke: #A80036; stroke-width: 1.5;" width="135" x="398.5" y="194"/><rect fill="#FEFECE" height="5" style="stroke: #A80036; stroke-width: 1.5;" width="10" x="393.5" y="199"/><rect fill="#FEFECE" height="5" style="stroke: #A80036; stroke-width: 1.5;" width="10" x="393.5" y="220.4883"/><text fill="#000000" font-family="sans-serif" font-size="14" lengthAdjust="spacingAndGlyphs" textLength="115" x="408.5" y="217.5352">todo-list-service</text><!--link REST to tutorial-api--><path d="M216.18,337 C227.89,337 239.59,337 251.3,337 " fill="none" id="REST-tutorial-api" style="stroke: #A80036; stroke-width: 1.0;"/><!--link GraphQL to tutorial-api--><path d="M155.44,327.77 C158.05,313.87 164.77,287.45 180,271 C185.87,264.66 189.07,264.44 197.5,262.5 C236.34,253.57 271.73,294.03 289.32,318.84 " fill="none" id="GraphQL-tutorial-api" style="stroke: #A80036; stroke-width: 1.0;"/><!--link Altair Graphql Client to GraphQL--><path d="M123.01,230.1 C130.27,254.91 143.57,300.37 150.13,322.78 " fill="none" id="Altair Graphql Client-GraphQL" style="stroke: #A80036; stroke-width: 1.0; stroke-dasharray: 7.0,7.0;"/><polygon fill="#A80036" points="151.57,327.71,152.89,317.95,150.17,322.91,145.21,320.19,151.57,327.71" style="stroke: #A80036; stroke-width: 1.0;"/><!--link Swagger Rest UI to REST--><path d="M274.3,230.24 C261.06,240.81 245.06,255.31 234,271 C222.56,287.22 214.77,309.03 210.6,322.8 " fill="none" id="Swagger Rest UI-REST" style="stroke: #A80036; stroke-width: 1.0; stroke-dasharray: 7.0,7.0;"/><polygon fill="#A80036" points="209.13,327.83,215.49,320.31,210.53,323.03,207.81,318.07,209.13,327.83" style="stroke: #A80036; stroke-width: 1.0;"/><!--link User to Altair Graphql Client--><path d="M193.36,78.09 C175.51,109.57 146.69,160.4 130.35,189.22 " fill="none" id="User-Altair Graphql Client" style="stroke: #A80036; stroke-width: 1.0; stroke-dasharray: 7.0,7.0;"/><polygon fill="#A80036" points="127.84,193.65,135.7679,187.8063,130.313,189.3044,128.8149,183.8495,127.84,193.65" style="stroke: #A80036; stroke-width: 1.0;"/><text fill="#000000" font-family="sans-serif" font-size="13" lengthAdjust="spacingAndGlyphs" textLength="39" x="170" y="134.5684">/altair</text><!--link User to Swagger Rest UI--><path d="M224.5,78.46 C241.99,110 270.07,160.64 285.98,189.33 " fill="none" id="User-Swagger Rest UI" style="stroke: #A80036; stroke-width: 1.0; stroke-dasharray: 7.0,7.0;"/><polygon fill="#A80036" points="288.43,193.74,287.5804,183.9279,286.0127,189.3632,280.5774,187.7955,288.43,193.74" style="stroke: #A80036; stroke-width: 1.0;"/><text fill="#000000" font-family="sans-serif" font-size="13" lengthAdjust="spacingAndGlyphs" textLength="112" x="258" y="134.5684">/swagger-ui.html</text><!--
@startuml

node "API Server" {
  () REST - [tutorial-api]
  () GraphQL - [tutorial-api]
}

note as rest_note
  REST resources
  - -
end note




actor User

node Browser {
  [Altair Graphql Client] ..> GraphQL
  [Swagger Rest UI] ..> REST
}

User ..> [Altair Graphql Client] : /altair
User ..> [Swagger Rest UI] : /swagger-ui.html
rest_note .. [todo-list-service]




@enduml

PlantUML version 1.2019.05(Sun Apr 21 01:45:36 JST 2019)
(GPL source distribution)
Java Runtime: OpenJDK Runtime Environment
JVM: OpenJDK 64-Bit Server VM
Java Version: 11.0.7+10-LTS
Operating System: Mac OS X
OS Version: 10.15.6
Default Encoding: UTF-8
Language: en
Country: JP
--></g></svg>