<?xml version="1.0" encoding="UTF-8" standalone="no"?><svg xmlns="http://www.w3.org/2000/svg" xmlns:xlink="http://www.w3.org/1999/xlink" contentScriptType="application/ecmascript" contentStyleType="text/css" height="383px" preserveAspectRatio="none" style="width:537px;height:383px;" version="1.1" viewBox="0 0 537 383" width="537px" zoomAndPan="magnify"><defs><filter height="300%" id="f1ontl4t6mkoeh" width="300%" x="-1" y="-1"><feGaussianBlur result="blurOut" stdDeviation="2.0"/><feColorMatrix in="blurOut" result="blurOut2" type="matrix" values="0 0 0 0 0 0 0 0 0 0 0 0 0 0 0 0 0 0 .4 0"/><feOffset dx="4.0" dy="4.0" in="blurOut2" result="blurOut3"/><feBlend in="SourceGraphic" in2="blurOut3" mode="normal"/></filter></defs><g><!--cluster API Server--><polygon fill="#FFFFFF" filter="url(#f1ontl4t6mkoeh)" points="132,289,142,279,362,279,362,361,352,371,132,371,132,289" style="stroke: #000000; stroke-width: 1.5;"/><line style="stroke: #000000; stroke-width: 1.5;" x1="352" x2="361" y1="289" y2="280"/><line style="stroke: #000000; stroke-width: 1.5;" x1="132" x2="352" y1="289" y2="289"/><line style="stroke: #000000; stroke-width: 1.5;" x1="352" x2="352" y1="289" y2="371"/><text fill="#000000" font-family="sans-serif" font-size="14" font-weight="bold" lengthAdjust="spacingAndGlyphs" textLength="83" x="201.5" y="304.9951">API Server</text><!--cluster Browser--><polygon fill="#FFFFFF" filter="url(#f1ontl4t6mkoeh)" points="22,164,32,154,377,154,377,236,367,246,22,246,22,164" style="stroke: #000000; stroke-width: 1.5;"/><line style="stroke: #000000; stroke-width: 1.5;" x1="367" x2="376" y1="164" y2="155"/><line style="stroke: #000000; stroke-width: 1.5;" x1="22" x2="367" y1="164" y2="164"/><line style="stroke: #000000; stroke-width: 1.5;" x1="367" x2="367" y1="164" y2="246"/><text fill="#000000" font-family="sans-serif" font-size="14" font-weight="bold" lengthAdjust="spacingAndGlyphs" textLength="67" x="162" y="179.9951">Browser</text><!--entity REST--><ellipse cx="210" cy="337" fill="#FEFECE" filter="url(#f1ontl4t6mkoeh)" rx="8" ry="8" style="stroke: #A80036; stroke-width: 2.0;"/><text fill="#000000" font-family="sans-serif" font-size="14" lengthAdjust="spacingAndGlyphs" textLength="37" x="191.5" y="366.9951">REST</text><!--entity tutorial-api--><rect fill="#FEFECE" filter="url(#f1ontl4t6mkoeh)" height="36.2969" style="stroke: #A80036; stroke-width: 1.5;" width="92" x="254" y="319"/><rect fill="#FEFECE" height="5" style="stroke: #A80036; stroke-width: 1.5;" width="10" x="249" y="324"/><rect fill="#FEFECE" height="5" style="stroke: #A80036; stroke-width: 1.5;" width="10" x="249" y="345.2969"/><text fill="#000000" font-family="sans-serif" font-size="14" lengthAdjust="spacingAndGlyphs" textLength="72" x="264" y="341.9951">tutorial-api</text><!--entity GraphQL--><ellipse cx="157" cy="337" fill="#FEFECE" filter="url(#f1ontl4t6mkoeh)" rx="8" ry="8" style="stroke: #A80036; stroke-width: 2.0;"/><text fill="#000000" font-family="sans-serif" font-size="14" lengthAdjust="spacingAndGlyphs" textLength="60" x="127" y="366.9951">GraphQL</text><!--entity Altair Graphql Client--><rect fill="#FEFECE" filter="url(#f1ontl4t6mkoeh)" height="36.2969" style="stroke: #A80036; stroke-width: 1.5;" width="154" x="38" y="194"/><rect fill="#FEFECE" height="5" style="stroke: #A80036; stroke-width: 1.5;" width="10" x="33" y="199"/><rect fill="#FEFECE" height="5" style="stroke: #A80036; stroke-width: 1.5;" width="10" x="33" y="220.2969"/><text fill="#000000" font-family="sans-serif" font-size="14" lengthAdjust="spacingAndGlyphs" textLength="134" x="48" y="216.9951">Altair Graphql Client</text><!--entity Swagger Rest UI--><rect fill="#FEFECE" filter="url(#f1ontl4t6mkoeh)" height="36.2969" style="stroke: #A80036; stroke-width: 1.5;" width="133" x="227.5" y="194"/><rect fill="#FEFECE" height="5" style="stroke: #A80036; stroke-width: 1.5;" width="10" x="222.5" y="199"/><rect fill="#FEFECE" height="5" style="stroke: #A80036; stroke-width: 1.5;" width="10" x="222.5" y="220.2969"/><text fill="#000000" font-family="sans-serif" font-size="14" lengthAdjust="spacingAndGlyphs" textLength="113" x="237.5" y="216.9951">Swagger Rest UI</text><path d="M401,33 L401,66.1328 A0,0 0 0 0 401,66.1328 L457,66.1328 L461,193.56 L465,66.1328 L521,66.1328 A0,0 0 0 0 521,66.1328 L521,43 L511,33 L401,33 A0,0 0 0 0 401,33 " fill="#FBFB77" filter="url(#f1ontl4t6mkoeh)" style="stroke: #A80036; stroke-width: 1.0;"/><path d="M511,33 L511,43 L521,43 L511,33 " fill="#FBFB77" style="stroke: #A80036; stroke-width: 1.0;"/><text fill="#000000" font-family="sans-serif" font-size="13" lengthAdjust="spacingAndGlyphs" textLength="99" x="407" y="50.0669">REST resources</text><line style="stroke: #A80036; stroke-width: 1.0;" x1="402" x2="520" y1="53.1328" y2="53.1328"/><!--entity User--><ellipse cx="205" cy="18" fill="#FEFECE" filter="url(#f1ontl4t6mkoeh)" rx="8" ry="8" style="stroke: #A80036; stroke-width: 2.0;"/><path d="M205,26 L205,53 M192,34 L218,34 M205,53 L192,68 M205,53 L218,68 " fill="none" filter="url(#f1ontl4t6mkoeh)" style="stroke: #A80036; stroke-width: 2.0;"/><text fill="#000000" font-family="sans-serif" font-size="14" lengthAdjust="spacingAndGlyphs" textLength="32" x="189" y="87.9951">User</text><!--entity todo-list-service--><rect fill="#FEFECE" filter="url(#f1ontl4t6mkoeh)" height="36.2969" style="stroke: #A80036; stroke-width: 1.5;" width="130" x="396" y="194"/><rect fill="#FEFECE" height="5" style="stroke: #A80036; stroke-width: 1.5;" width="10" x="391" y="199"/><rect fill="#FEFECE" height="5" style="stroke: #A80036; stroke-width: 1.5;" width="10" x="391" y="220.2969"/><text fill="#000000" font-family="sans-serif" font-size="14" lengthAdjust="spacingAndGlyphs" textLength="110" x="406" y="216.9951">todo-list-service</text><!--link REST to tutorial-api--><path d="M219.14,337 C230.72,337 242.3,337 253.88,337 " fill="none" id="REST-tutorial-api" style="stroke: #A80036; stroke-width: 1.0;"/><!--link GraphQL to tutorial-api--><path d="M158.44,327.77 C161.05,313.87 167.77,287.45 183,271 C188.87,264.66 192.07,264.44 200.5,262.5 C238.36,253.79 272.17,294.16 288.91,318.9 " fill="none" id="GraphQL-tutorial-api" style="stroke: #A80036; stroke-width: 1.0;"/><!--link Altair Graphql Client to GraphQL--><path d="M120.84,230.1 C129.31,254.91 144.83,300.37 152.49,322.78 " fill="none" id="Altair Graphql Client-GraphQL" style="stroke: #A80036; stroke-width: 1.0; stroke-dasharray: 7.0,7.0;"/><polygon fill="#A80036" points="154.17,327.71,155.0478,317.9003,152.5546,322.9781,147.4768,320.485,154.17,327.71" style="stroke: #A80036; stroke-width: 1.0;"/><!--link Swagger Rest UI to REST--><path d="M273.09,230.09 C260.99,240.83 246.19,255.55 236,271 C225.13,287.48 217.59,309.22 213.53,322.9 " fill="none" id="Swagger Rest UI-REST" style="stroke: #A80036; stroke-width: 1.0; stroke-dasharray: 7.0,7.0;"/><polygon fill="#A80036" points="212.09,327.9,218.4086,320.3452,213.4636,323.0924,210.7164,318.1474,212.09,327.9" style="stroke: #A80036; stroke-width: 1.0;"/><!--link User to Altair Graphql Client--><path d="M188.91,79.19 C171.15,110.86 142.98,161.1 127.04,189.54 " fill="none" id="User-Altair Graphql Client" style="stroke: #A80036; stroke-width: 1.0; stroke-dasharray: 7.0,7.0;"/><polygon fill="#A80036" points="124.58,193.91,132.4622,188.0048,127.0191,189.5453,125.4786,184.1022,124.58,193.91" style="stroke: #A80036; stroke-width: 1.0;"/><text fill="#000000" font-family="sans-serif" font-size="13" lengthAdjust="spacingAndGlyphs" textLength="36" x="167" y="134.0669">/altair</text><!--link User to Swagger Rest UI--><path d="M221.12,79.57 C238.64,111.16 266.23,160.93 281.96,189.29 " fill="none" id="User-Swagger Rest UI" style="stroke: #A80036; stroke-width: 1.0; stroke-dasharray: 7.0,7.0;"/><polygon fill="#A80036" points="284.57,193.99,283.6958,184.18,282.1418,189.6192,276.7026,188.0652,284.57,193.99" style="stroke: #A80036; stroke-width: 1.0;"/><text fill="#000000" font-family="sans-serif" font-size="13" lengthAdjust="spacingAndGlyphs" textLength="106" x="254" y="134.0669">/swagger-ui.html</text><!--
@startuml

node "API Server" {
  () REST - [tutorial-api]
  () GraphQL - [tutorial-api]
}

note as rest_note
  REST resources
  - -
end note




actor User

node Browser {
  [Altair Graphql Client] ..> GraphQL
  [Swagger Rest UI] ..> REST
}

User ..> [Altair Graphql Client] : /altair
User ..> [Swagger Rest UI] : /swagger-ui.html
rest_note .. [todo-list-service]




@enduml

PlantUML version 1.2019.05(Sun Apr 21 01:45:36 JST 2019)
(GPL source distribution)
Java Runtime: OpenJDK Runtime Environment
JVM: OpenJDK 64-Bit Server VM
Java Version: 11.0.8+10
Operating System: Linux
OS Version: 4.19.84-microsoft-standard
Default Encoding: UTF-8
Language: en
Country: 
--></g></svg>