<?xml version="1.0" encoding="UTF-8" standalone="no"?><svg xmlns="http://www.w3.org/2000/svg" xmlns:xlink="http://www.w3.org/1999/xlink" contentScriptType="application/ecmascript" contentStyleType="text/css" height="402px" preserveAspectRatio="none" style="width:401px;height:402px;" version="1.1" viewBox="0 0 401 402" width="401px" zoomAndPan="magnify"><defs><filter height="300%" id="f12wartdmnajaj" width="300%" x="-1" y="-1"><feGaussianBlur result="blurOut" stdDeviation="2.0"/><feColorMatrix in="blurOut" result="blurOut2" type="matrix" values="0 0 0 0 0 0 0 0 0 0 0 0 0 0 0 0 0 0 .4 0"/><feOffset dx="4.0" dy="4.0" in="blurOut2" result="blurOut3"/><feBlend in="SourceGraphic" in2="blurOut3" mode="normal"/></filter></defs><g><!--cluster Browser--><polygon fill="#FFFFFF" filter="url(#f12wartdmnajaj)" points="22,164,32,154,379,154,379,380,369,390,22,390,22,164" style="stroke: #000000; stroke-width: 1.5;"/><line style="stroke: #000000; stroke-width: 1.5;" x1="369" x2="378" y1="164" y2="155"/><line style="stroke: #000000; stroke-width: 1.5;" x1="22" x2="369" y1="164" y2="164"/><line style="stroke: #000000; stroke-width: 1.5;" x1="369" x2="369" y1="164" y2="390"/><text fill="#000000" font-family="sans-serif" font-size="14" font-weight="bold" lengthAdjust="spacingAndGlyphs" textLength="58" x="167.5" y="180.5352">Browser</text><!--entity Altair Graphql Client--><rect fill="#FEFECE" filter="url(#f12wartdmnajaj)" height="36.4883" style="stroke: #A80036; stroke-width: 1.5;" width="160" x="38" y="194"/><rect fill="#FEFECE" height="5" style="stroke: #A80036; stroke-width: 1.5;" width="10" x="33" y="199"/><rect fill="#FEFECE" height="5" style="stroke: #A80036; stroke-width: 1.5;" width="10" x="33" y="220.4883"/><text fill="#000000" font-family="sans-serif" font-size="14" lengthAdjust="spacingAndGlyphs" textLength="140" x="48" y="217.5352">Altair Graphql Client</text><!--entity GraphQL--><ellipse cx="118" cy="301" fill="#FEFECE" filter="url(#f12wartdmnajaj)" rx="8" ry="8" style="stroke: #A80036; stroke-width: 2.0;"/><path d="M118,309 L118,336 M105,317 L131,317 M118,336 L105,351 M118,336 L131,351 " fill="none" filter="url(#f12wartdmnajaj)" style="stroke: #A80036; stroke-width: 2.0;"/><text fill="#000000" font-family="sans-serif" font-size="14" lengthAdjust="spacingAndGlyphs" textLength="60" x="88" y="371.5352">GraphQL</text><!--entity Swagger Rest UI--><rect fill="#FEFECE" filter="url(#f12wartdmnajaj)" height="36.4883" style="stroke: #A80036; stroke-width: 1.5;" width="130" x="233" y="194"/><rect fill="#FEFECE" height="5" style="stroke: #A80036; stroke-width: 1.5;" width="10" x="228" y="199"/><rect fill="#FEFECE" height="5" style="stroke: #A80036; stroke-width: 1.5;" width="10" x="228" y="220.4883"/><text fill="#000000" font-family="sans-serif" font-size="14" lengthAdjust="spacingAndGlyphs" textLength="110" x="243" y="217.5352">Swagger Rest UI</text><!--entity REST--><ellipse cx="298" cy="301" fill="#FEFECE" filter="url(#f12wartdmnajaj)" rx="8" ry="8" style="stroke: #A80036; stroke-width: 2.0;"/><path d="M298,309 L298,336 M285,317 L311,317 M298,336 L285,351 M298,336 L311,351 " fill="none" filter="url(#f12wartdmnajaj)" style="stroke: #A80036; stroke-width: 2.0;"/><text fill="#000000" font-family="sans-serif" font-size="14" lengthAdjust="spacingAndGlyphs" textLength="34" x="281" y="371.5352">REST</text><!--entity User--><ellipse cx="207" cy="18" fill="#FEFECE" filter="url(#f12wartdmnajaj)" rx="8" ry="8" style="stroke: #A80036; stroke-width: 2.0;"/><path d="M207,26 L207,53 M194,34 L220,34 M207,53 L194,68 M207,53 L220,68 " fill="none" filter="url(#f12wartdmnajaj)" style="stroke: #A80036; stroke-width: 2.0;"/><text fill="#000000" font-family="sans-serif" font-size="14" lengthAdjust="spacingAndGlyphs" textLength="31" x="191.5" y="88.5352">User</text><!--link Altair Graphql Client to GraphQL--><path d="M118,230.23 C118,244.72 118,266.13 118,285.53 " fill="none" id="Altair Graphql Client-GraphQL" style="stroke: #A80036; stroke-width: 1.0; stroke-dasharray: 7.0,7.0;"/><polygon fill="#A80036" points="118,290.94,122,281.94,118,285.94,114,281.94,118,290.94" style="stroke: #A80036; stroke-width: 1.0;"/><!--link Swagger Rest UI to REST--><path d="M298,230.23 C298,244.72 298,266.13 298,285.53 " fill="none" id="Swagger Rest UI-REST" style="stroke: #A80036; stroke-width: 1.0; stroke-dasharray: 7.0,7.0;"/><polygon fill="#A80036" points="298,290.94,302,281.94,298,285.94,294,281.94,298,290.94" style="stroke: #A80036; stroke-width: 1.0;"/><!--link User to Altair Graphql Client--><path d="M191.5,78.46 C174.01,110 145.93,160.64 130.02,189.33 " fill="none" id="User-Altair Graphql Client" style="stroke: #A80036; stroke-width: 1.0; stroke-dasharray: 7.0,7.0;"/><polygon fill="#A80036" points="127.57,193.74,135.4226,187.7955,129.9873,189.3632,128.4196,183.9279,127.57,193.74" style="stroke: #A80036; stroke-width: 1.0;"/><text fill="#000000" font-family="sans-serif" font-size="13" lengthAdjust="spacingAndGlyphs" textLength="39" x="169" y="134.5684">/altair</text><!--link User to Swagger Rest UI--><path d="M222.64,78.09 C240.49,109.57 269.31,160.4 285.65,189.22 " fill="none" id="User-Swagger Rest UI" style="stroke: #A80036; stroke-width: 1.0; stroke-dasharray: 7.0,7.0;"/><polygon fill="#A80036" points="288.16,193.65,287.1851,183.8495,285.687,189.3044,280.2321,187.8063,288.16,193.65" style="stroke: #A80036; stroke-width: 1.0;"/><text fill="#000000" font-family="sans-serif" font-size="13" lengthAdjust="spacingAndGlyphs" textLength="112" x="256" y="134.5684">/swagger-ui.html</text><!--
@startuml





actor User

node Browser {
  [Altair Graphql Client] ..> GraphQL
  [Swagger Rest UI] ..> REST
}

User ..> [Altair Graphql Client] : /altair
User ..> [Swagger Rest UI] : /swagger-ui.html



@enduml

PlantUML version 1.2019.05(Sun Apr 21 01:45:36 JST 2019)
(GPL source distribution)
Java Runtime: OpenJDK Runtime Environment
JVM: OpenJDK 64-Bit Server VM
Java Version: 11.0.7+10-LTS
Operating System: Mac OS X
OS Version: 10.15.6
Default Encoding: UTF-8
Language: en
Country: JP
--></g></svg>